<?xml version="1.0" standalone="no"?>
<!DOCTYPE svg PUBLIC "-//W3C//DTD SVG 1.1//EN" "http://www.w3.org/Graphics/SVG/1.1/DTD/svg11.dtd" >
<svg xmlns="http://www.w3.org/2000/svg" xmlns:xlink="http://www.w3.org/1999/xlink" version="1.1">
<metadata>
Created by FontForge 20200314 at Sun Apr 15 23:14:51 2012
 By Unknown
</metadata>
<defs>
<font id="RectaW01-MediumCondensed" horiz-adv-x="437" >
  <font-face 
    font-family="RectaW01-MediumCondensed"
    font-weight="500"
    font-stretch="normal"
    units-per-em="1000"
    panose-1="2 0 0 0 0 0 0 0 0 0"
    ascent="749"
    descent="-251"
    x-height="450"
    cap-height="700"
    bbox="-17 -250 1123 948"
    underline-thickness="50"
    underline-position="-100"
    unicode-range="U+0002-2122"
  />
<missing-glyph horiz-adv-x="0" 
 />
    <glyph glyph-name=".notdef" horiz-adv-x="0" 
 />
    <glyph glyph-name="glyph1" horiz-adv-x="0" 
 />
    <glyph glyph-name="glyph2" horiz-adv-x="0" 
 />
    <glyph glyph-name="uni0002" horiz-adv-x="0" 
 />
    <glyph glyph-name="uni0009" unicode="&#x9;" horiz-adv-x="0" 
 />
    <glyph glyph-name="uni000A" unicode="&#xa;" horiz-adv-x="0" 
 />
    <glyph glyph-name="space" unicode=" " horiz-adv-x="183" 
 />
    <glyph glyph-name="exclam" unicode="!" horiz-adv-x="218" 
d="M68 175l-9 525h100l-9 -525h-82zM59 0v102h100v-102h-100z" />
    <glyph glyph-name="quotedbl" unicode="&#x22;" horiz-adv-x="289" 
d="M167 450l-12 250h94l-12 -250h-70zM52 450l-12 250h94l-12 -250h-70z" />
    <glyph glyph-name="numbersign" unicode="#" horiz-adv-x="966" 
d="M484 0l-305 509v-509h-97v700h94l301 -508v508h97v-700h-90zM705 96v70h144v-70h-144zM777 285q18 0 31 9.5t21 25.5t11.5 37.5t3.5 46.5q0 24 -3.5 45.5t-11.5 38t-20.5 26.5t-31.5 10t-31.5 -10t-20.5 -26.5t-11.5 -38t-3.5 -45.5q0 -50 15 -84.5t52 -34.5zM777 218
q-37 0 -65 16t-47 42t-28.5 59.5t-9.5 68.5t9.5 68.5t28.5 60t47 42.5t65 16t65.5 -16t47.5 -42.5t28.5 -60t9.5 -68.5t-9.5 -68.5t-28.5 -59.5t-47.5 -42t-65.5 -16z" />
    <glyph glyph-name="dollar" unicode="$" horiz-adv-x="500" 
d="M218 635q-21 -3 -35 -14t-23 -26t-13 -33t-4 -37q0 -47 20.5 -70.5t54.5 -37.5v218zM271 69q28 3 45.5 15t27.5 28.5t13.5 35.5t3.5 36q0 27 -7 46.5t-19 34t-28.5 24t-35.5 17.5v-237zM218 -100v88q-34 4 -65.5 18.5t-55.5 41.5t-38.5 68.5t-14.5 98.5h96q0 -72 21 -104
t57 -40v249q-33 10 -64 22.5t-54.5 33t-38 52.5t-14.5 81q0 40 10.5 75.5t31.5 63.5t53 45.5t76 21.5v65h53v-65q75 -6 119 -56t44 -141h-96q0 48 -20.5 78t-46.5 38v-232q32 -10 65 -22.5t60 -34.5t44 -56.5t17 -88.5q0 -42 -11 -79.5t-34 -66.5t-58 -46.5t-83 -20.5v-87
h-53z" />
    <glyph glyph-name="percent" unicode="%" horiz-adv-x="796" 
d="M609 53q18 0 30 9.5t19.5 25.5t11 38t3.5 46t-3.5 45.5t-11 38t-19.5 26.5t-30 10t-30 -9.5t-19.5 -26t-11 -38.5t-3.5 -46q0 -50 14.5 -84.5t49.5 -34.5zM610 -14q-37 0 -65.5 16t-47.5 42t-28.5 59.5t-9.5 68.5t9.5 68.5t28.5 60t47.5 42.5t65.5 16t65 -16t47 -42.5
t28.5 -60t9.5 -68.5t-9.5 -68.5t-28.5 -59.5t-47 -42t-65 -16zM186 410q18 0 30 9.5t19.5 25.5t11 38t3.5 46t-3.5 45.5t-11 38t-19.5 26.5t-30 10t-30 -9.5t-19.5 -26t-11 -38.5t-3.5 -46q0 -50 14.5 -84.5t49.5 -34.5zM187 343q-37 0 -65.5 16t-47.5 42t-28.5 59.5
t-9.5 68.5t9.5 68.5t28.5 60t47.5 42.5t65.5 16t65 -16t47 -42.5t28.5 -60t9.5 -68.5t-9.5 -68.5t-28.5 -59.5t-47 -42t-65 -16zM202 -27l313 763h75l-313 -763h-75z" />
    <glyph glyph-name="ampersand" unicode="&#x26;" horiz-adv-x="514" 
d="M240 431q27 23 43.5 50.5t16.5 71.5q0 15 -2.5 30t-8.5 27.5t-16 20t-25 7.5q-17 0 -27 -8.5t-15.5 -20.5t-7 -25t-1.5 -22q0 -24 9.5 -54.5t33.5 -76.5zM333 132q-28 43 -61.5 91t-64.5 98q-32 -26 -54 -59t-22 -87t24 -82.5t69 -28.5q32 0 59 16t50 52zM459 -17
q-7 13 -26.5 36.5t-48.5 55.5q-35 -47 -74 -68t-92 -21q-88 0 -136.5 52t-48.5 142q0 42 11 74t29 57t41 43.5t47 34.5q-28 52 -44 95t-16 81q0 21 6.5 47t23.5 49.5t46 39t75 15.5q42 0 69.5 -14t44 -36.5t23.5 -51t7 -58.5q0 -38 -9 -67t-25 -51.5t-36.5 -40t-42.5 -32.5
q20 -36 42.5 -75t49.5 -80q7 23 12.5 51t10.5 61l72 -23q-18 -89 -42 -151q19 -26 40.5 -51.5t43.5 -51.5z" />
    <glyph glyph-name="quotesingle" unicode="'" horiz-adv-x="174" 
d="M52 450l-12 250h94l-12 -250h-70z" />
    <glyph glyph-name="parenleft" unicode="(" horiz-adv-x="239" 
d="M156 -148q-22 43 -44.5 92t-40.5 106t-29 122t-11 139t11 139t29 122t40.5 106t44.5 92l64 -35q-15 -28 -32 -71t-31.5 -98t-24 -119.5t-9.5 -134.5q0 -71 9.5 -136t24 -119.5t31.5 -98t32 -71.5z" />
    <glyph glyph-name="parenright" unicode=")" horiz-adv-x="239" 
d="M19 -113q15 28 32 71.5t31.5 98t24 119.5t9.5 136q0 70 -9.5 134.5t-24 119.5t-31.5 98t-32 71l64 35q22 -43 44.5 -92t40.5 -106t29 -122t11 -139t-11 -139t-29 -122t-40.5 -106t-44.5 -92z" />
    <glyph glyph-name="asterisk" unicode="*" horiz-adv-x="408" 
d="M204 468l-88 -136l-51 57l105 102l-128 61l33 72l110 -94l-18 170h74l-17 -170l110 94l32 -72l-128 -61l106 -102l-52 -57z" />
    <glyph glyph-name="plus" unicode="+" horiz-adv-x="390" 
d="M157 60v155h-119v80h119v155h75v-155h120v-80h-120v-155h-75z" />
    <glyph glyph-name="comma" unicode="," horiz-adv-x="182" 
d="M45 -89v191h100l-47 -191h-53z" />
    <glyph glyph-name="hyphen" unicode="-" horiz-adv-x="286" 
d="M47 215v80h192v-80h-192z" />
    <glyph glyph-name="hyphen" unicode="&#xad;" horiz-adv-x="286" 
d="M47 215v80h192v-80h-192z" />
    <glyph glyph-name="period" unicode="." horiz-adv-x="190" 
d="M45 0v102h100v-102h-100z" />
    <glyph glyph-name="slash" unicode="/" horiz-adv-x="328" 
d="M35 0l183 700h75l-184 -700h-74z" />
    <glyph glyph-name="zero" unicode="0" horiz-adv-x="484" 
d="M242 68q27 0 46.5 23.5t32 62.5t18.5 90t6 107q0 55 -6 106t-18.5 90.5t-32 63t-46.5 23.5t-46 -23.5t-31.5 -63t-18.5 -90.5t-6 -106q0 -56 6 -107t18.5 -90t31.5 -62.5t46 -23.5zM242 -14q-50 0 -87.5 31t-62 82t-36.5 116.5t-12 135.5q0 69 12 135t36.5 117t62 82
t87.5 31t87.5 -31t62 -82t37 -117t12.5 -135q0 -70 -12.5 -135.5t-37 -116.5t-62 -82t-87.5 -31z" />
    <glyph glyph-name="one" unicode="1" horiz-adv-x="342" 
d="M170 0v549q-8 -16 -22 -33.5t-33.5 -35.5t-44 -34.5t-52.5 -29.5v93q57 37 97 84t71 107h81v-700h-97z" />
    <glyph glyph-name="two" unicode="2" horiz-adv-x="429" 
d="M41 0v51q0 79 18.5 128.5t46 82t60 54.5t60 47t46 59t18.5 91q0 23 -3.5 45t-12.5 39.5t-23.5 28t-36.5 10.5q-26 0 -41 -15t-22 -38t-8.5 -50.5t-1.5 -52.5h-91q0 109 42 172.5t127 63.5q46 0 78 -18.5t51 -48.5t27.5 -68.5t8.5 -77.5q0 -65 -18.5 -107t-45.5 -71.5
t-59.5 -52t-59.5 -47.5t-45.5 -57.5t-18.5 -83.5h247v-84h-343z" />
    <glyph glyph-name="three" unicode="3" horiz-adv-x="431" 
d="M140 317v79q55 0 84.5 11.5t43 29.5t16 39.5t2.5 41.5q0 58 -21.5 88t-53.5 30q-30 0 -50.5 -28.5t-20.5 -91.5h-91q0 51 14 88.5t36.5 62t52 37t59.5 12.5t60 -12t54.5 -37t39.5 -62t15 -86q0 -52 -22 -95.5t-82 -63.5q30 -10 50 -27.5t33 -40.5t18.5 -49.5t5.5 -53.5
q0 -38 -10.5 -74.5t-31.5 -65t-53.5 -46t-77.5 -17.5q-35 0 -66.5 12t-55.5 37.5t-38.5 64.5t-14.5 94h91q0 -35 7.5 -59.5t19 -39.5t26.5 -22t30 -7q35 0 55.5 31.5t20.5 91.5q0 66 -25.5 97t-73.5 31h-46z" />
    <glyph glyph-name="four" unicode="4" horiz-adv-x="442" 
d="M256 589l-147 -323h147v323zM256 0v182h-233v110l206 408h124v-434h51v-84h-51v-182h-97z" />
    <glyph glyph-name="five" unicode="5" horiz-adv-x="431" 
d="M136 194q0 -35 6.5 -59.5t17.5 -39.5t25.5 -22t29.5 -7q23 0 38 13t24 35.5t13 52.5t4 65q0 33 -3.5 62.5t-12 52.5t-22.5 36.5t-36 13.5q-26 0 -44 -20.5t-26 -60.5h-92l11 384h296v-84h-203l-4 -187q18 29 40 42t47 13q34 0 61 -20.5t46 -55t29.5 -80t10.5 -95.5
q0 -47 -9.5 -91.5t-31 -79t-55.5 -55.5t-82 -21q-35 0 -65.5 12t-54 37.5t-36.5 64.5t-13 94h91z" />
    <glyph glyph-name="six" unicode="6" horiz-adv-x="454" 
d="M239 68q43 0 60.5 39.5t17.5 106.5q0 77 -20 110t-58 33q-46 0 -65.5 -39.5t-19.5 -100.5q0 -27 4 -53.5t13.5 -48t26 -34.5t41.5 -13zM313 533q-11 52 -31.5 76.5t-46.5 24.5q-28 0 -46 -25.5t-28.5 -66t-14.5 -91t-4 -99.5q13 36 39.5 63t73.5 27q33 0 62 -15t50 -43.5
t33.5 -70t12.5 -94.5q0 -45 -10 -87t-31 -74.5t-54.5 -52t-81.5 -19.5q-54 0 -90.5 26t-58.5 72t-31.5 108t-9.5 134q0 84 11.5 155.5t35.5 123.5t60 81.5t85 29.5q60 0 102.5 -46t57.5 -137h-85z" />
    <glyph glyph-name="seven" unicode="7" horiz-adv-x="381" 
d="M75 0l196 616h-252v84h341v-105l-187 -595h-98z" />
    <glyph glyph-name="eight" unicode="8" horiz-adv-x="460" 
d="M230 403q19 0 33 10t24 26.5t15 38t5 45.5q0 57 -24 86t-53 29q-30 0 -54 -29.5t-24 -85.5q0 -24 5 -45.5t15 -38t24.5 -26.5t33.5 -10zM230 64q23 0 39.5 11t27 28.5t15.5 40t5 46.5q0 33 -8.5 57t-21 40t-28 24t-29.5 8t-29.5 -8t-28.5 -24t-21 -40.5t-8 -56.5
q0 -24 5 -46.5t15.5 -40t27 -28.5t39.5 -11zM312 360q51 -24 75.5 -74t24.5 -104q0 -38 -11.5 -73t-34.5 -62.5t-57 -44t-79 -16.5t-79.5 16.5t-57.5 44t-34.5 63t-11.5 72.5q0 54 25 104t75 74q-45 20 -68 62t-23 96q0 38 11.5 73.5t34 63.5t54.5 44.5t74 16.5t74 -16.5
t54 -44.5t33.5 -63.5t11.5 -72.5q0 -55 -23 -97t-68 -62z" />
    <glyph glyph-name="nine" unicode="9" horiz-adv-x="458" 
d="M137 197q1 -33 8 -57t18 -40t25 -24t29 -8q43 0 71 68t28 213q-2 -16 -9 -31q-7 -16 -20.5 -29t-33 -21t-46.5 -8q-36 0 -66 16t-51.5 44.5t-33 69t-11.5 89.5q0 48 11.5 91t35 75.5t58 51.5t79.5 19q52 0 87.5 -26t56.5 -71.5t30 -107t9 -132.5q0 -84 -11.5 -155.5
t-35 -124.5t-60 -83t-86.5 -30q-34 0 -64 14t-53 41t-37 66.5t-16 89.5h88zM220 345q41 0 62.5 36.5t21.5 100.5q0 31 -5.5 58.5t-16 48.5t-26 33t-36.5 12q-20 0 -35 -11.5t-25 -31.5t-14.5 -47.5t-4.5 -60.5q0 -138 79 -138z" />
    <glyph glyph-name="colon" unicode=":" horiz-adv-x="194" 
d="M47 368v102h100v-102h-100zM47 0v102h100v-102h-100z" />
    <glyph glyph-name="semicolon" unicode=";" horiz-adv-x="191" 
d="M47 -89v191h100l-47 -191h-53zM47 368v102h100v-102h-100z" />
    <glyph glyph-name="less" unicode="&#x3c;" horiz-adv-x="460" 
d="M38 260v93l360 220v-92l-267 -175l267 -174v-92z" />
    <glyph glyph-name="equal" unicode="=" horiz-adv-x="449" 
d="M56 325v80h337v-80h-337zM56 103v80h337v-80h-337z" />
    <glyph glyph-name="greater" unicode="&#x3e;" horiz-adv-x="460" 
d="M62 40v92l268 174l-268 175v92l360 -220v-93z" />
    <glyph glyph-name="question" unicode="?" horiz-adv-x="420" 
d="M161 0v102h90v-102h-90zM161 175q0 54 8.5 88.5t21 58.5t27.5 41.5t27.5 37.5t21 46t8.5 67q0 25 -4 47.5t-12.5 39t-23 26t-35.5 9.5q-26 0 -40.5 -15t-21.5 -38t-9 -50.5t-2 -52.5h-90q0 109 41 172.5t128 63.5q46 0 77.5 -17.5t51 -47.5t28 -68.5t8.5 -80.5
q0 -47 -9 -77.5t-22 -53t-29 -40t-29 -38t-22 -48.5t-9 -70h-90z" />
    <glyph glyph-name="at" unicode="@" horiz-adv-x="848" 
d="M471 -187q-20 -3 -38 -4t-32 -1q-91 0 -158 33.5t-110.5 89.5t-65 129.5t-21.5 153.5q0 60 11.5 120t35 116t59 104t82.5 84t106.5 56.5t131.5 20.5q90 0 154.5 -32t105 -83.5t59.5 -117.5t19 -134q0 -74 -20 -143.5t-55 -123.5t-81.5 -87t-99.5 -33q-41 0 -64 21.5
t-23 66.5v17q0 9 2 20q-23 -27 -50.5 -43t-63.5 -16q-33 0 -57.5 13.5t-40 36.5t-23.5 55t-8 69q0 55 16 108.5t45.5 95.5t69.5 67.5t88 25.5q35 0 56 -13t35 -35l3 35h95q-24 -123 -38 -198.5t-21 -118.5t-9 -60t-2 -23q0 -17 8 -25t21 -8q24 0 48 24t42.5 64t30 90.5
t11.5 104.5q0 59 -15.5 112t-47 93.5t-79.5 64t-114 23.5q-84 0 -146.5 -37.5t-104.5 -97t-63 -134t-21 -147.5q0 -65 17 -125.5t51.5 -106.5t88 -73.5t125.5 -27.5q17 0 35 1.5t35 5.5zM395 99q31 0 53 20.5t35.5 51.5t20 68t6.5 70q0 34 -5.5 57t-14.5 36t-19.5 18.5
t-19.5 5.5q-16 0 -38 -13t-42 -39.5t-34 -66.5t-14 -93q0 -54 17 -84.5t55 -30.5z" />
    <glyph glyph-name="A" unicode="A" horiz-adv-x="498" 
d="M249 592l-77 -329h156zM391 0l-43 179h-197l-43 -179h-102l190 704h106l190 -704h-101z" />
    <glyph glyph-name="B" unicode="B" horiz-adv-x="473" 
d="M203 397q40 0 64.5 10t38 26.5t17.5 36.5t4 40q0 49 -22.5 76.5t-81.5 27.5h-55v-217h35zM226 89q39 0 61 10.5t33.5 27t14.5 35t3 35.5q0 59 -25.5 88.5t-94.5 29.5h-50v-226h58zM71 0v700h169q44 0 78 -14t57.5 -38.5t36 -59t12.5 -75.5q0 -50 -19 -88.5t-62 -61.5
q50 -23 70.5 -63t20.5 -98q0 -47 -12.5 -84t-40 -63.5t-71 -40.5t-104.5 -14h-135z" />
    <glyph glyph-name="C" unicode="C" horiz-adv-x="593" 
d="M569 224q-3 -53 -22.5 -96.5t-52 -75t-75.5 -49t-94 -17.5q-53 0 -104.5 20.5t-92.5 64t-66.5 112.5t-25.5 167q0 94 24 163t64.5 114t92.5 67t109 22q54 0 95.5 -18t70.5 -48.5t45.5 -70.5t21.5 -83h-93q-6 41 -20.5 68t-34.5 42.5t-43 21.5t-45 6q-48 0 -83.5 -22.5
t-59 -61.5t-35 -91.5t-11.5 -112.5q0 -134 52 -206t139 -72q26 0 51.5 8t46.5 26t35 48t18 74h93z" />
    <glyph glyph-name="D" unicode="D" horiz-adv-x="586" 
d="M192 86q43 0 82 6.5t74 29.5q22 15 41 35t32.5 48t21 65t7.5 84q0 46 -7 81.5t-20 62t-30 45t-38 32.5q-32 21 -71 30t-92 9h-24v-528h24zM71 0v700h146q81 0 136.5 -19t90.5 -49q58 -49 81 -123.5t23 -158.5q0 -35 -4 -71.5t-15.5 -72t-30.5 -67.5t-49 -59
q-35 -31 -94.5 -55.5t-153.5 -24.5h-130z" />
    <glyph glyph-name="E" unicode="E" horiz-adv-x="460" 
d="M71 0v700h349v-84h-252v-217h237v-84h-237v-231h252v-84h-349z" />
    <glyph glyph-name="F" unicode="F" horiz-adv-x="423" 
d="M71 0v700h332v-84h-235v-229h216v-81h-216v-306h-97z" />
    <glyph glyph-name="G" unicode="G" horiz-adv-x="607" 
d="M327 245v84h253q0 -78 -15.5 -141.5t-47 -108t-79 -69t-110.5 -24.5q-61 0 -114 23t-92.5 69t-62.5 114t-23 158q0 91 23 159.5t62.5 114.5t92.5 69t112 23t102 -21t71.5 -53t42.5 -71t16 -75h-92q-8 69 -47.5 103.5t-94.5 34.5q-40 0 -74.5 -18t-60 -53.5t-40.5 -89
t-15 -125.5q0 -70 14.5 -122.5t40 -87.5t61 -52.5t77.5 -17.5q23 0 48.5 7t47.5 26t38 53.5t21 90.5h-155z" />
    <glyph glyph-name="H" unicode="H" horiz-adv-x="583" 
d="M416 0v314h-248v-314h-97v700h97v-302h248v302h96v-700h-96z" />
    <glyph glyph-name="I" unicode="I" horiz-adv-x="239" 
d="M71 0v700h97v-700h-97z" />
    <glyph glyph-name="J" unicode="J" horiz-adv-x="266" 
d="M20 76q22 -6 38 -6q30 0 37.5 21t7.5 67v542h96v-550q0 -29 -4 -58t-17 -52.5t-37.5 -38.5t-65.5 -15q-17 0 -32 3t-23 8v79z" />
    <glyph glyph-name="K" unicode="K" horiz-adv-x="490" 
d="M373 0l-205 347v-347h-97v700h97v-331l198 332h112l-204 -339l222 -362h-123z" />
    <glyph glyph-name="L" unicode="L" horiz-adv-x="406" 
d="M71 0v700h97v-616h231v-84h-328z" />
    <glyph glyph-name="M" unicode="M" horiz-adv-x="722" 
d="M557 0v514l-161 -517h-69l-162 517v-514h-94v700h133l157 -507l157 507h133v-700h-94z" />
    <glyph glyph-name="N" unicode="N" horiz-adv-x="634" 
d="M473 0l-305 509v-509h-97v700h94l301 -508v508h97v-700h-90z" />
    <glyph glyph-name="O" unicode="O" horiz-adv-x="635" 
d="M317 68q39 0 73 17.5t58.5 53t38.5 88.5t14 124t-14 124t-38.5 88.5t-58.5 53t-73 17.5t-73 -17.5t-58.5 -53t-38.5 -88.5t-14 -124t14 -124t38.5 -88.5t58.5 -53t73 -17.5zM317 -14q-52 0 -102.5 23t-90.5 69t-64.5 114.5t-24.5 158.5t24.5 158.5t64.5 114.5t90.5 69
t102.5 23t103 -23t91 -69t64.5 -114.5t24.5 -158.5t-24.5 -158.5t-64.5 -114.5t-91 -69t-103 -23z" />
    <glyph glyph-name="P" unicode="P" horiz-adv-x="449" 
d="M216 355q36 0 58 10.5t35 29t17.5 43.5t4.5 54q0 25 -4 47t-16 38.5t-35 26.5t-60 10h-48v-259h48zM71 0v700h159q52 0 89.5 -15.5t61 -43t34.5 -66t11 -84.5q0 -47 -11.5 -87.5t-36 -70t-63 -46t-92.5 -16.5h-55v-271h-97z" />
    <glyph glyph-name="Q" unicode="Q" horiz-adv-x="640" 
d="M313 220l54 62l105 -98q14 32 21.5 74t7.5 93q0 71 -14 124t-38.5 88.5t-58.5 53t-73 17.5t-73 -17.5t-58.5 -53t-38.5 -88.5t-14 -124t14 -124t38.5 -88.5t58.5 -53t73 -17.5q65 0 110 45zM489 56q-38 -35 -82 -52.5t-90 -17.5q-52 0 -102.5 23t-90.5 69t-64.5 114.5
t-24.5 158.5t24.5 158.5t64.5 114.5t90.5 69t102.5 23t103 -23t91 -69t64.5 -114.5t24.5 -158.5q0 -72 -16 -129.5t-43 -101.5l73 -67l-54 -63z" />
    <glyph glyph-name="R" unicode="R" horiz-adv-x="471" 
d="M209 376q39 0 62.5 10.5t36 28t17 40.5t4.5 48q0 21 -4 41t-16.5 35.5t-35.5 25t-62 9.5h-43v-238h41zM331 0l-131 298h-32v-298h-97v700h147q57 0 96.5 -14t63.5 -40t35 -62.5t11 -81.5q0 -74 -30.5 -127t-101.5 -70l148 -305h-109z" />
    <glyph glyph-name="S" unicode="S" horiz-adv-x="479" 
d="M330 518q0 54 -28.5 86t-73.5 32q-24 0 -42 -9.5t-29 -25.5t-16.5 -35.5t-5.5 -39.5q0 -45 23.5 -68.5t58 -37.5t75.5 -26t75.5 -33t58 -58t23.5 -102q0 -44 -12.5 -83.5t-37 -68.5t-62.5 -46t-89 -17q-40 0 -78 12t-68 39.5t-48 71t-18 106.5h96q0 -41 8.5 -69t24 -45
t36.5 -24.5t45 -7.5q34 0 55 11.5t32.5 28.5t15.5 37t4 37q0 37 -13.5 60t-35.5 38t-50.5 24.5t-57.5 19t-57.5 21.5t-50.5 32.5t-35.5 51.5t-13.5 78q0 41 11.5 78.5t35.5 66.5t61 46t89 17q88 0 139 -50.5t51 -147.5h-96z" />
    <glyph glyph-name="T" unicode="T" horiz-adv-x="407" 
d="M155 0v616h-139v84h375v-84h-139v-616h-97z" />
    <glyph glyph-name="U" unicode="U" horiz-adv-x="564" 
d="M401 700h97v-442q0 -66 -8 -114.5t-29 -81.5q-26 -42 -74 -59t-105 -17t-105 17t-74 59q-21 33 -29 81.5t-8 114.5v442h97v-421q0 -54 3 -93t13 -62q23 -55 103 -55t103 55q10 23 13 62t3 93v421z" />
    <glyph glyph-name="V" unicode="V" horiz-adv-x="488" 
d="M192 -4l-184 704h101l135 -547l135 547h101l-185 -704h-103z" />
    <glyph glyph-name="W" unicode="W" horiz-adv-x="783" 
d="M519 -4l-128 546l-128 -546h-103l-144 704h101l98 -524l118 525h117l118 -525l97 524h102l-145 -704h-103z" />
    <glyph glyph-name="X" unicode="X" horiz-adv-x="468" 
d="M351 0l-120 268l-117 -268h-107l171 360l-163 340h108l113 -253l111 253h107l-165 -345l171 -355h-109z" />
    <glyph glyph-name="Y" unicode="Y" horiz-adv-x="445" 
d="M174 0v255l-173 445h99l123 -322l122 322h99l-173 -445v-255h-97z" />
    <glyph glyph-name="Z" unicode="Z" horiz-adv-x="457" 
d="M24 0v105l293 511h-276v84h387v-93l-304 -523h304v-84h-404z" />
    <glyph glyph-name="bracketleft" unicode="[" horiz-adv-x="266" 
d="M60 -103v803h182v-74h-88v-655h88v-74h-182z" />
    <glyph glyph-name="backslash" unicode="\" horiz-adv-x="328" 
d="M218 0l-183 700h74l184 -700h-75z" />
    <glyph glyph-name="bracketright" unicode="]" horiz-adv-x="266" 
d="M24 -103v74h89v655h-89v74h182v-803h-182z" />
    <glyph glyph-name="asciicircum" unicode="^" horiz-adv-x="394" 
d="M270 409l-74 198l-72 -198h-84l119 291h75l120 -291h-84z" />
    <glyph glyph-name="underscore" unicode="_" horiz-adv-x="434" 
d="M37 -33v65h360v-65h-360z" />
    <glyph glyph-name="grave" unicode="`" horiz-adv-x="240" 
d="M141 520l-101 138h101l59 -138h-59z" />
    <glyph glyph-name="a" unicode="a" horiz-adv-x="392" 
d="M174 60q42 0 59.5 25.5t17.5 58.5q0 38 -19.5 58t-52.5 20q-20 0 -33.5 -7t-21.5 -19t-11.5 -28t-3.5 -33q0 -15 2.5 -28.5t9.5 -24t20 -16.5t33 -6zM251 0v46q-5 -8 -12.5 -17.5t-19.5 -17.5t-29.5 -13.5t-41.5 -5.5q-35 0 -58.5 12t-37.5 31.5t-20 44.5t-6 52
q0 33 8.5 61.5t25 49.5t42 33t58.5 12q26 0 49 -9t40 -29v12q0 32 -1.5 56t-7 40.5t-17.5 24.5t-33 8q-30 0 -42.5 -16.5t-20.5 -47.5h-78q8 66 42.5 101t105.5 35q44 0 72.5 -13t45 -36.5t23 -56.5t6.5 -72v-285h-93z" />
    <glyph glyph-name="b" unicode="b" horiz-adv-x="442" 
d="M223 64q24 0 42 13.5t30.5 36.5t19 53t6.5 64q0 30 -5.5 59t-16.5 51.5t-29 36t-42 13.5q-25 0 -41.5 -14t-26 -37.5t-13 -53.5t-3.5 -62q0 -31 3.5 -60t12.5 -51t24 -35.5t39 -13.5zM51 0v716h96v-313q20 28 45.5 44t61.5 16q39 0 69.5 -19.5t50.5 -51.5t30.5 -73.5
t10.5 -85.5q0 -45 -11 -88.5t-32.5 -77t-54.5 -54.5t-76 -21q-34 0 -56 12.5t-38 35.5v-40h-96z" />
    <glyph glyph-name="c" unicode="c" horiz-adv-x="404" 
d="M381 159q-1 -30 -8 -60t-24 -54t-47 -38.5t-77 -14.5q-55 0 -92.5 20t-61 52.5t-34 74.5t-10.5 86q0 45 11 88t34.5 76.5t61 53.5t90.5 20q39 0 67 -11.5t46 -32t27.5 -48t12.5 -60.5h-82q-5 33 -19 56.5t-51 23.5q-27 0 -46 -13t-31.5 -35.5t-18 -53t-5.5 -65.5
q0 -33 5 -62t17 -50.5t31 -34.5t47 -13q38 0 55.5 24t19.5 71h82z" />
    <glyph glyph-name="d" unicode="d" horiz-adv-x="442" 
d="M215 64q24 0 39.5 13t25.5 35t14 51t4 60q0 48 -8 80t-20 51.5t-27 28t-28 8.5q-14 0 -30.5 -9.5t-30.5 -29.5t-23 -51t-9 -75q0 -33 5.5 -62t17 -51.5t29 -35.5t41.5 -13zM296 0v51q-20 -27 -45.5 -43t-61.5 -16q-40 0 -70 19t-50.5 51t-31 73.5t-10.5 86.5q0 58 16 103
t41.5 76t57 46.5t62.5 15.5q29 0 52 -13t40 -35v301h95v-716h-95z" />
    <glyph glyph-name="e" unicode="e" horiz-adv-x="413" 
d="M296 275q-4 65 -24 90.5t-53 25.5q-35 0 -58.5 -26.5t-30.5 -89.5h166zM125 211q-1 -65 21.5 -106t72.5 -41q33 0 54.5 20t26.5 58h84q-2 -26 -11.5 -53t-28.5 -48.5t-49 -35t-75 -13.5q-54 0 -91 20.5t-59.5 54t-32 76t-9.5 86.5q0 45 10 87t31.5 75t57 52.5t86.5 19.5
q49 0 83 -19t55 -52.5t30 -79.5t9 -101h-265z" />
    <glyph glyph-name="f" unicode="f" horiz-adv-x="240" 
d="M68 0v380h-46v70h46v83q0 39 3.5 72t15 58t33 39t57.5 14q8 0 17 -1t20 -4v-71q-3 1 -5 1.5t-7 0.5q-20 0 -29 -22t-9 -78v-92h60v-70h-60v-380h-96z" />
    <glyph glyph-name="g" unicode="g" horiz-adv-x="442" 
d="M211 64q45 0 66 45.5t21 117.5q0 45 -7.5 76t-19 50.5t-26 28.5t-28.5 9q-15 0 -31.5 -9t-30.5 -28.5t-23.5 -51t-9.5 -77.5q0 -31 5 -60t16 -51.5t27.5 -36t40.5 -13.5zM296 45q-18 -25 -42 -39t-59 -14q-42 0 -73.5 19.5t-52.5 51.5t-31.5 74.5t-10.5 87.5
q0 58 16 102.5t41 74.5t56.5 45.5t62.5 15.5q57 0 93 -50v37h95v-463q0 -45 -10.5 -83t-32 -65t-55 -42.5t-79.5 -15.5q-31 0 -60.5 8t-52 27t-36 50t-13.5 76h81q0 -16 2 -32t10 -29t23.5 -21.5t42.5 -8.5q51 0 68 33t17 100v61z" />
    <glyph glyph-name="h" unicode="h" 
d="M294 0v270q0 25 -1 46.5t-6.5 36.5t-16 23.5t-28.5 8.5q-23 0 -41 -12.5t-30 -35t-18 -53t-6 -66.5v-218h-96v716h96v-334q26 46 57 63.5t66 17.5q59 0 89 -42.5t30 -134.5v-286h-95z" />
    <glyph glyph-name="i" unicode="i" horiz-adv-x="198" 
d="M51 573v96h96v-96h-96zM51 0v450h96v-450h-96z" />
    <glyph glyph-name="j" unicode="j" horiz-adv-x="198" 
d="M51 573v96h96v-96h-96zM2 -119q5 -1 8 -1q30 0 35.5 28t5.5 89v453h96v-452q0 -41 -5.5 -76t-18 -60.5t-34 -40.5t-52.5 -15q-7 0 -17 0.5t-18 2.5v72z" />
    <glyph glyph-name="k" unicode="k" horiz-adv-x="391" 
d="M282 0l-135 226v-226h-96v716h96v-463l130 197h106l-140 -211l145 -239h-106z" />
    <glyph glyph-name="l" unicode="l" horiz-adv-x="204" 
d="M54 0v716h96v-716h-96z" />
    <glyph glyph-name="m" unicode="m" horiz-adv-x="657" 
d="M513 0v270q0 25 -1 46t-6 36.5t-15.5 24t-29.5 8.5q-43 0 -64 -45.5t-21 -121.5v-218h-96v270q0 25 -1 46t-6 36.5t-15.5 24t-29.5 8.5q-23 0 -38.5 -13t-25 -35.5t-13.5 -53t-4 -65.5v-218h-96v450h96v-68q18 42 42 61.5t62 19.5q41 0 70 -22.5t43 -70.5q27 55 59.5 74
t66.5 19q119 0 119 -183v-280h-96z" />
    <glyph glyph-name="n" unicode="n" 
d="M294 0v270q0 25 -1 46.5t-6.5 36.5t-16 23.5t-28.5 8.5q-23 0 -41 -12.5t-30 -35t-18 -53t-6 -66.5v-218h-96v450h96v-68q26 46 57 63.5t66 17.5q59 0 89 -42.5t30 -134.5v-286h-95z" />
    <glyph glyph-name="o" unicode="o" 
d="M219 64q26 0 44 12.5t29.5 34.5t16.5 51.5t5 63.5t-5 64t-16.5 52.5t-29.5 35.5t-44 13t-44.5 -13t-30 -35.5t-16.5 -52.5t-5 -64t5 -63.5t16.5 -51.5t30 -34.5t44.5 -12.5zM219 -8q-48 0 -84 20t-60 52.5t-36.5 75t-12.5 87.5t12.5 87.5t36.5 75.5t60 53t84 20
q47 0 83 -20t60 -53t36.5 -75.5t12.5 -87.5t-12.5 -87.5t-36.5 -75t-60 -52.5t-83 -20z" />
    <glyph glyph-name="p" unicode="p" horiz-adv-x="442" 
d="M226 64q13 0 30 8.5t31 28t24 51.5t10 78q0 30 -5 59t-16 51.5t-28.5 36.5t-41.5 14q-23 0 -39 -12.5t-26.5 -34.5t-15.5 -51t-5 -63q0 -47 8 -78.5t20 -51t26.5 -28t27.5 -8.5zM51 -193v643h96v-41q20 27 43 40.5t56 13.5q41 0 72.5 -19.5t53 -51.5t32.5 -74t11 -88
q0 -57 -16 -101.5t-41.5 -75t-57 -46t-62.5 -15.5q-30 0 -53 13t-38 35v-233h-96z" />
    <glyph glyph-name="q" unicode="q" horiz-adv-x="442" 
d="M213 64q23 0 39 12.5t26.5 34.5t15 52t4.5 64q0 45 -7 76.5t-18.5 51t-25.5 28t-28 8.5t-31 -8.5t-31.5 -28t-24.5 -51.5t-10 -78q0 -30 5 -59t16 -51.5t28.5 -36.5t41.5 -14zM296 -193v238q-19 -25 -42 -39t-58 -14q-41 0 -72.5 19t-53 51t-32.5 74t-11 88
q0 58 16 102.5t41.5 75t57 46t62.5 15.5t53.5 -14t38.5 -36v37h95v-643h-95z" />
    <glyph glyph-name="r" unicode="r" horiz-adv-x="309" 
d="M51 0v450h96v-68q16 26 30.5 42t28 24.5t26 11.5t24.5 3q29 0 44 -12v-87q-22 11 -49 11q-51 0 -77.5 -46.5t-26.5 -129.5v-199h-96z" />
    <glyph glyph-name="s" unicode="s" horiz-adv-x="355" 
d="M237 338q-2 34 -16.5 46.5t-41.5 12.5q-20 0 -32.5 -5t-19 -13t-9 -17t-2.5 -17q0 -25 16 -38.5t39.5 -22.5t51.5 -18t51.5 -24t39.5 -40t16 -68q0 -26 -7.5 -51.5t-24.5 -45.5t-46 -32.5t-71 -12.5q-32 0 -59.5 7.5t-48 25t-32.5 45t-12 66.5l84 6q1 -45 18 -64.5
t47 -19.5q18 0 30 6.5t18.5 16t9 20.5t2.5 21q0 28 -15.5 43t-38.5 25t-50.5 18.5t-50.5 22.5t-38.5 37.5t-15.5 63.5q0 64 41 97.5t111 33.5q69 0 104 -32.5t37 -92.5h-85z" />
    <glyph glyph-name="t" unicode="t" horiz-adv-x="278" 
d="M264 11q-19 -19 -69 -19q-65 0 -97.5 37t-32.5 126v225h-54v70h54v136l96 36v-172h103v-70h-103v-201q0 -57 7.5 -82.5t43.5 -25.5q26 0 52 13v-73z" />
    <glyph glyph-name="u" unicode="u" 
d="M291 0v73q-21 -43 -54 -62t-70 -19q-53 0 -86 40.5t-33 135.5v282h96v-265q0 -24 1 -44.5t6 -36.5t14.5 -25t27.5 -9q41 0 69.5 46t28.5 126v208h95v-450h-95z" />
    <glyph glyph-name="v" unicode="v" horiz-adv-x="369" 
d="M127 -3l-120 453h99l78 -346l79 346h99l-120 -453h-115z" />
    <glyph glyph-name="w" unicode="w" horiz-adv-x="632" 
d="M397 -3l-81 338l-81 -338h-112l-113 453h100l70 -345l84 347h104l84 -347l71 345h99l-112 -453h-113z" />
    <glyph glyph-name="x" unicode="x" horiz-adv-x="357" 
d="M247 0l-69 152l-68 -152h-104l123 231l-117 219h103l63 -140l63 140h104l-117 -219l122 -231h-103z" />
    <glyph glyph-name="y" unicode="y" horiz-adv-x="373" 
d="M51 -108q21 -7 39 -7q13 0 21.5 5t14.5 15t11 26t10 38l12 51h-33l-119 430h99l79 -342l86 342h95l-128 -483q-9 -34 -19.5 -63t-26 -50.5t-39 -34t-57.5 -12.5q-17 0 -27.5 2.5t-17.5 7.5v75z" />
    <glyph glyph-name="z" unicode="z" horiz-adv-x="356" 
d="M24 0v94l197 282h-186v74h293v-87l-206 -289h206v-74h-304z" />
    <glyph glyph-name="braceleft" unicode="{" horiz-adv-x="297" 
d="M227 -128q-51 0 -78.5 15t-40 40.5t-14.5 59t-2 70.5v89q0 30 -1.5 50t-8 32t-19 16.5t-33.5 4.5h-17v74h17q21 0 33.5 4.5t19 16.5t8 32t1.5 50v89q0 37 2 70.5t14.5 59t40 40.5t78.5 15h47v-74h-31q-21 0 -32.5 -4.5t-17 -16.5t-6.5 -32t-1 -50v-89q0 -23 -0.5 -46
t-5 -42.5t-15 -35t-29.5 -24.5q18 -10 28.5 -24t15 -33t5.5 -41.5t1 -49.5v-89q0 -30 1 -50t6.5 -32t17 -16.5t32.5 -4.5h31v-74h-47z" />
    <glyph glyph-name="bar" unicode="|" horiz-adv-x="212" 
d="M58 -250v950h96v-950h-96z" />
    <glyph glyph-name="braceright" unicode="}" horiz-adv-x="297" 
d="M23 -128v74h31q21 0 33 4.5t17.5 16.5t6.5 32t1 50v89q0 27 1 50t5.5 41.5t14.5 32.5t28 24q-18 9 -28 23t-14.5 32.5t-5.5 42t-1 50.5v89q0 30 -1 50t-6.5 32t-17.5 16.5t-33 4.5h-31v74h47q51 0 78.5 -15t40 -40.5t14.5 -59t2 -70.5v-89q0 -30 2 -50t8.5 -32t19 -16.5
t33.5 -4.5h16v-74h-16q-21 0 -33.5 -4.5t-19 -16.5t-8.5 -32t-2 -50v-89q0 -37 -2 -70.5t-14.5 -59t-40 -40.5t-78.5 -15h-47z" />
    <glyph glyph-name="asciitilde" unicode="~" horiz-adv-x="384" 
d="M351 597q0 -33 -6.5 -55.5t-17 -36t-23.5 -19.5t-26 -6q-20 0 -40.5 11.5t-40 26t-38 26t-33.5 11.5q-13 0 -18.5 -9t-5.5 -32v-24l-67 14v25q0 65 19 91t51 26q23 0 45.5 -11.5t42.5 -26t37.5 -26t30.5 -11.5q23 0 23 41v24l67 -14v-25z" />
    <glyph glyph-name="uni00A0" unicode="&#xa0;" horiz-adv-x="183" 
 />
    <glyph glyph-name="exclamdown" unicode="&#xa1;" horiz-adv-x="196" 
d="M48 -193l9 525h82l9 -525h-100zM48 405v102h100v-102h-100z" />
    <glyph glyph-name="cent" unicode="&#xa2;" horiz-adv-x="484" 
d="M248 532q-26 -4 -43.5 -19.5t-28 -40t-15.5 -55.5t-5 -66q0 -54 11.5 -97t42.5 -66zM188 0l11 104q-41 13 -70 38t-47 58.5t-26 72.5t-8 79q0 48 11.5 94t36.5 82t65.5 59t97.5 24l10 89h61l-10 -96q56 -14 83.5 -56.5t34.5 -100.5h-91q-5 26 -13 45.5t-25 30.5l-40 -352
q77 0 82 103h91q-1 -35 -11.5 -67.5t-32.5 -58t-56.5 -40.5t-82.5 -15l-10 -93h-61z" />
    <glyph glyph-name="sterling" unicode="&#xa3;" horiz-adv-x="498" 
d="M44 0v64l85 20v211h-87v80h87v114q0 62 14 105.5t38 70.5t56 39t69 12q14 0 34.5 -2.5t41 -12t38.5 -27.5t28 -48l-56 -56q-10 25 -29.5 44t-53.5 19q-23 0 -39 -10t-25.5 -26.5t-14 -38t-4.5 -44.5v-139h188v-80h-188v-211h227v-84h-409z" />
    <glyph glyph-name="currency" unicode="&#xa4;" horiz-adv-x="582" 
d="M418 344q0 27 -10.5 50t-28.5 40t-41 26.5t-47 9.5q-26 0 -49.5 -10t-40.5 -27t-27 -40t-10 -49t10 -49.5t27 -40.5t40.5 -27t49.5 -10t49 10t40.5 27t27.5 40.5t10 49.5zM407 172q-28 -19 -58 -27t-58 -8t-58 8t-58 27l-68 -68l-56 58l68 66q-23 35 -29 65.5t-6 49.5
q0 20 6 50t29 65l-68 67l56 58l68 -68q28 19 58 27t58 8t58 -8t58 -27l68 68l56 -58l-68 -67q23 -35 29 -65t6 -50q0 -19 -6 -49.5t-29 -65.5l68 -66l-56 -58z" />
    <glyph glyph-name="yen" unicode="&#xa5;" horiz-adv-x="531" 
d="M314 103v-103h-97v103h-164v80h164v72l-4 10h-160v80h129l-138 355h99l123 -322l122 322h99l-138 -355h129v-80h-160l-4 -10v-72h164v-80h-164z" />
    <glyph glyph-name="brokenbar" unicode="&#xa6;" horiz-adv-x="218" 
d="M61 320v380h96v-380h-96zM61 -250v380h96v-380h-96z" />
    <glyph glyph-name="section" unicode="&#xa7;" horiz-adv-x="405" 
d="M239 280q14 5 20.5 18.5t6.5 39.5q0 16 -4 28t-13.5 21.5t-25 18.5t-38.5 19q-6 -2 -14 -5.5t-14.5 -9.5t-11 -15.5t-4.5 -23.5q0 -24 11.5 -39.5t27.5 -25t32.5 -15.5t26.5 -11zM133 136q1 -45 18 -64.5t47 -19.5q18 0 30 6.5t18.5 16t9 20.5t2.5 21q0 28 -15.5 45
t-38.5 29t-50.5 22.5t-50.5 26.5t-38.5 41t-15.5 65q0 45 19 74t49 46q-26 17 -43 43t-17 69q0 65 42.5 102t114.5 37q66 0 100 -32t36 -93h-85q-2 34 -16.5 46.5t-40.5 12.5q-20 0 -31.5 -5.5t-17.5 -13.5t-8 -16.5t-2 -15.5q0 -27 15.5 -43t38.5 -29t50.5 -25t50.5 -30.5
t38.5 -47t15.5 -72.5q0 -34 -11 -65t-38 -51q18 -18 29.5 -43.5t11.5 -62.5q0 -28 -7.5 -54t-25 -46t-46 -32t-70.5 -12q-32 0 -59.5 7.5t-48 25t-32.5 45t-12 66.5z" />
    <glyph glyph-name="dieresis" unicode="&#xa8;" horiz-adv-x="289" 
d="M163 520v93h86v-93h-86zM40 520v93h86v-93h-86z" />
    <glyph glyph-name="copyright" unicode="&#xa9;" horiz-adv-x="678" 
d="M493 284q-1 -27 -6.5 -54.5t-20.5 -50t-42 -36.5t-70 -14q-50 0 -84.5 19t-55.5 50.5t-30 70.5t-9 80q0 42 9.5 82.5t31 72t55.5 50.5t82 19q35 0 60 -10.5t41 -29.5t24 -45t11 -56h-73q-6 31 -17.5 52.5t-44.5 21.5q-24 0 -41.5 -12.5t-28 -34t-15.5 -50.5t-5 -62
q0 -30 4.5 -57.5t14.5 -48t27 -33t42 -12.5q34 0 49 22.5t17 65.5h75zM340 44q50 0 94 24t77 66t52 98t19 120t-19 120t-52 97.5t-77 65.5t-94 24t-94.5 -24t-77.5 -65.5t-52.5 -97.5t-19.5 -120t19.5 -120t52.5 -98t77.5 -66t94.5 -24zM339 -17q-60 0 -114 29t-94 79
t-63.5 117t-23.5 144t23.5 144t63.5 117t94 78.5t114 28.5q61 0 115 -29t94 -78.5t63 -117t23 -143.5t-23 -143t-63 -117.5t-94 -79.5t-115 -29z" />
    <glyph glyph-name="ordfeminine" unicode="&#xaa;" horiz-adv-x="345" 
d="M216 429q0 24 -15 39.5t-42 15.5q-16 0 -26.5 -5.5t-16.5 -14t-8.5 -19.5t-2.5 -21q0 -27 13.5 -40.5t36.5 -13.5q25 0 43 16t18 43zM216 313v36q-3 -5 -8.5 -12.5t-15 -14t-24 -11t-35.5 -4.5q-29 0 -48.5 9t-31.5 24.5t-17 36.5t-5 44q0 26 6 48.5t18.5 39.5t32 27
t45.5 10q20 0 44 -7t38 -26v29q0 15 -1 28t-5.5 23t-14 15.5t-25.5 5.5q-23 0 -34 -11.5t-16 -28.5h-70q6 49 34.5 78t91.5 29q71 0 97.5 -37t26.5 -101v-230h-83z" />
    <glyph glyph-name="guillemotleft" unicode="&#xab;" horiz-adv-x="400" 
d="M302 35l-124 223l124 223h65l-101 -223l101 -223h-65zM156 35l-124 223l124 223h65l-101 -223l101 -223h-65z" />
    <glyph glyph-name="logicalnot" unicode="&#xac;" horiz-adv-x="428" 
d="M291 195v175h-252v80h328v-255h-76z" />
    <glyph glyph-name="registered" unicode="&#xae;" horiz-adv-x="678" 
d="M340 44q50 0 94 24t77 66t52 98t19 120t-19 120t-52 97.5t-77 65.5t-94 24t-94.5 -24t-77.5 -65.5t-52.5 -97.5t-19.5 -120t19.5 -120t52.5 -98t77.5 -66t94.5 -24zM329 379q24 0 38.5 6t22.5 16t10.5 23.5t2.5 28.5q0 29 -13 46.5t-58 17.5h-22v-138h19zM410 133
l-83 186h-17v-186h-64v449h88q37 0 62.5 -9t41 -25.5t22.5 -39.5t7 -51q0 -23 -3.5 -44t-12.5 -39t-24.5 -31t-39.5 -19l93 -191h-70zM339 -17q-60 0 -114 29t-94 79t-63.5 117t-23.5 144t23.5 144t63.5 117t94 78.5t114 28.5q61 0 115 -29t94 -78.5t63 -117t23 -143.5
t-23 -143t-63 -117.5t-94 -79.5t-115 -29z" />
    <glyph glyph-name="macron" unicode="&#xaf;" horiz-adv-x="320" 
d="M36 540v73h248v-73h-248z" />
    <glyph glyph-name="macron" unicode="&#x2c9;" horiz-adv-x="320" 
d="M36 540v73h248v-73h-248z" />
    <glyph glyph-name="degree" unicode="&#xb0;" horiz-adv-x="273" 
d="M137 478q21 0 35.5 21t14.5 52q0 30 -14 51t-36 21q-23 0 -37 -21t-14 -51q0 -31 14.5 -52t36.5 -21zM137 415q-22 0 -41.5 10.5t-34.5 29t-23.5 43t-8.5 53.5q0 28 8.5 52.5t23 43t34 29t42.5 10.5q22 0 41.5 -10.5t34 -29t23 -43t8.5 -52.5q0 -29 -8.5 -53.5t-23 -43
t-34 -29t-41.5 -10.5z" />
    <glyph glyph-name="plusminus" unicode="&#xb1;" horiz-adv-x="412" 
d="M49 0v80h314v-80h-314zM168 130v155h-119v80h119v155h75v-155h120v-80h-120v-155h-75z" />
    <glyph glyph-name="uni00B2" unicode="&#xb2;" horiz-adv-x="314" 
d="M50 265v37q0 39 7.5 65.5t20 45.5t27.5 32.5t30 24.5q22 17 41.5 40t19.5 64q0 24 -8 45t-31 21q-13 0 -20 -9t-10.5 -22.5t-4 -30t-0.5 -31.5h-67q0 71 25.5 112t79.5 41q30 0 50 -12t32 -30.5t17 -42t5 -47.5q0 -32 -7.5 -54.5t-19 -39t-26 -29t-29.5 -23.5
q-12 -9 -23 -18t-20 -19.5t-14.5 -24.5t-5.5 -32h145v-63h-214z" />
    <glyph glyph-name="uni00B3" unicode="&#xb3;" horiz-adv-x="318" 
d="M111 451v61q32 0 49.5 6t26 15.5t10 21t1.5 22.5q0 31 -11 47t-26 16t-25.5 -17.5t-10.5 -53.5h-67q0 33 9 57.5t23 41t32.5 24.5t38.5 8q19 0 37.5 -7.5t33.5 -23t24.5 -38.5t9.5 -54q0 -29 -9.5 -54t-39.5 -39q30 -15 40.5 -42.5t10.5 -58.5q0 -23 -6.5 -45.5
t-20 -40.5t-33.5 -29t-48 -11q-22 0 -42 7.5t-35 24t-24 42t-9 61.5h67q0 -41 13 -57.5t29 -16.5q17 0 27.5 16.5t10.5 48.5q0 35 -13.5 51.5t-37.5 16.5h-35z" />
    <glyph glyph-name="acute" unicode="&#xb4;" horiz-adv-x="240" 
d="M40 520l60 138h100l-101 -138h-59z" />
    <glyph glyph-name="uni00B5" unicode="&#xb5;" horiz-adv-x="640" 
d="M317 68q39 0 73 17.5t58.5 53t38.5 88.5t14 124t-14 124t-38.5 88.5t-58.5 53t-73 17.5t-73 -17.5t-58.5 -53t-38.5 -88.5t-14 -124t14 -124t38.5 -88.5t58.5 -53t73 -17.5zM489 55q-38 -35 -82 -52t-90 -17q-52 0 -102.5 23t-90.5 69t-64.5 114.5t-24.5 158.5
t24.5 158.5t64.5 114.5t90.5 69t102.5 23t103 -23t91 -69t64.5 -114.5t24.5 -158.5q0 -72 -16 -129.5t-43 -101.5l73 -67l-54 -63z" />
    <glyph glyph-name="paragraph" unicode="&#xb6;" horiz-adv-x="501" 
d="M348 -49v664h-90v-664h-72v344q-33 3 -60.5 20t-47 44t-30.5 63t-11 78q0 36 9 72t30.5 64.5t57 46t87.5 17.5h199v-749h-72z" />
    <glyph glyph-name="periodcentered" unicode="&#xb7;" horiz-adv-x="194" 
d="M47 299v102h100v-102h-100z" />
    <glyph glyph-name="cedilla" unicode="&#xb8;" horiz-adv-x="272" 
d="M59 -133q5 -4 15.5 -7t21.5 -3q15 0 31 7.5t16 26.5q0 18 -14 24.5t-25 8.5q-6 1 -12 1h-9l22 86h58l-13 -52q12 -2 23.5 -7.5t21 -14.5t15.5 -21.5t6 -28.5q0 -38 -29.5 -64t-73.5 -26q-31 0 -68 15z" />
    <glyph glyph-name="uni00B9" unicode="&#xb9;" horiz-adv-x="260" 
d="M139 275v308q-14 -17 -37 -35t-52 -31v68q34 23 58 51t44 64h58v-425h-71z" />
    <glyph glyph-name="ordmasculine" unicode="&#xba;" horiz-adv-x="358" 
d="M178 374q37 0 52 35t15 84q0 24 -3.5 45.5t-11.5 38t-20.5 26.5t-31.5 10q-18 0 -30.5 -9.5t-21 -26t-12 -38.5t-3.5 -46q0 -50 15.5 -84.5t51.5 -34.5zM178 307q-37 0 -65 16t-47 42t-28.5 59.5t-9.5 68.5t9.5 68.5t28.5 60t47 42.5t65 16t65.5 -16t47.5 -42.5t28.5 -60
t9.5 -68.5t-9.5 -68.5t-28.5 -59.5t-47.5 -42t-65.5 -16z" />
    <glyph glyph-name="guillemotright" unicode="&#xbb;" horiz-adv-x="400" 
d="M179 35l102 223l-102 223h65l124 -223l-124 -223h-65zM33 35l102 223l-102 223h65l124 -223l-124 -223h-65z" />
    <glyph glyph-name="onequarter" unicode="&#xbc;" horiz-adv-x="625" 
d="M139 275v308q-14 -17 -37 -35t-52 -31v68q34 23 58 51t44 64h58v-425h-71zM145 0l183 700h75l-184 -700h-74zM475 322q-17 -38 -35 -74.5t-35 -76.5h70v151zM475 0v107h-137v72l123 246h85v-254h29v-64h-29v-107h-71z" />
    <glyph glyph-name="onehalf" unicode="&#xbd;" horiz-adv-x="602" 
d="M338 0v37q0 39 7.5 65.5t20 45.5t27.5 32.5t30 24.5q22 17 41.5 40t19.5 64q0 24 -8 45t-31 21q-13 0 -20 -9t-10.5 -22.5t-4 -30t-0.5 -31.5h-67q0 71 25.5 112t79.5 41q30 0 50 -12t32 -30.5t17 -42t5 -47.5q0 -32 -7.5 -54.5t-19 -39t-26 -29t-29.5 -23.5
q-12 -9 -23 -18t-20 -19.5t-14.5 -24.5t-5.5 -32h145v-63h-214zM145 0l183 700h75l-184 -700h-74zM139 275v308q-14 -17 -37 -35t-52 -31v68q34 23 58 51t44 64h58v-425h-71z" />
    <glyph glyph-name="threequarters" unicode="&#xbe;" horiz-adv-x="683" 
d="M111 451v61q32 0 49.5 6t26 15.5t10 21t1.5 22.5q0 31 -11 47t-26 16t-25.5 -17.5t-10.5 -53.5h-67q0 33 9 57.5t23 41t32.5 24.5t38.5 8q19 0 37.5 -7.5t33.5 -23t24.5 -38.5t9.5 -54q0 -29 -9.5 -54t-39.5 -39q30 -15 40.5 -42.5t10.5 -58.5q0 -23 -6.5 -45.5
t-20 -40.5t-33.5 -29t-48 -11q-22 0 -42 7.5t-35 24t-24 42t-9 61.5h67q0 -41 13 -57.5t29 -16.5q17 0 27.5 16.5t10.5 48.5q0 35 -13.5 51.5t-37.5 16.5h-35zM203 0l183 700h75l-184 -700h-74zM533 322q-17 -38 -35 -74.5t-35 -76.5h70v151zM533 0v107h-137v72l123 246h85
v-254h29v-64h-29v-107h-71z" />
    <glyph glyph-name="questiondown" unicode="&#xbf;" horiz-adv-x="408" 
d="M162 405v102h90v-102h-90zM376 27q0 -108 -40.5 -172t-127.5 -64q-46 0 -78 17.5t-51.5 47.5t-28 68.5t-8.5 80.5q0 47 9 77.5t22 53t29 40t29 38t22 48.5t9 70h90q0 -54 -8.5 -88.5t-21 -58.5t-27.5 -41.5t-27.5 -37.5t-21 -46t-8.5 -67q0 -25 4 -47.5t12.5 -39t23 -26
t35.5 -9.5q25 0 39 15t21.5 38t10 50.5t2.5 52.5h90z" />
    <glyph glyph-name="Agrave" unicode="&#xc0;" horiz-adv-x="498" 
d="M230 770l-101 138h101l59 -138h-59zM249 592l-77 -329h156zM391 0l-43 179h-197l-43 -179h-102l190 704h106l190 -704h-101z" />
    <glyph glyph-name="Aacute" unicode="&#xc1;" horiz-adv-x="498" 
d="M209 770l60 138h100l-101 -138h-59zM249 592l-77 -329h156zM391 0l-43 179h-197l-43 -179h-102l190 704h106l190 -704h-101z" />
    <glyph glyph-name="Acircumflex" unicode="&#xc2;" horiz-adv-x="498" 
d="M298 770l-51 84l-49 -84h-63l72 138h83l72 -138h-64zM249 592l-77 -329h156zM391 0l-43 179h-197l-43 -179h-102l190 704h106l190 -704h-101z" />
    <glyph glyph-name="Atilde" unicode="&#xc3;" horiz-adv-x="498" 
d="M376 880q-2 -40 -14 -62t-26 -32.5t-27 -13t-17 -2.5q-15 0 -26 7t-21 16t-18.5 16t-18.5 7q-13 0 -19.5 -13t-7.5 -32h-60q0 29 7.5 49.5t19.5 34t26 20t27 6.5q14 0 26.5 -6.5t23.5 -14t21.5 -14t19.5 -6.5q7 0 16 7t9 33h59zM249 592l-77 -329h156zM391 0l-43 179
h-197l-43 -179h-102l190 704h106l190 -704h-101z" />
    <glyph glyph-name="Adieresis" unicode="&#xc4;" horiz-adv-x="498" 
d="M267 770v93h86v-93h-86zM144 770v93h86v-93h-86zM249 592l-77 -329h156zM391 0l-43 179h-197l-43 -179h-102l190 704h106l190 -704h-101z" />
    <glyph glyph-name="Aring" unicode="&#xc5;" horiz-adv-x="498" 
d="M248 814q14 0 22.5 13t8.5 32q0 18 -8 31.5t-23 13.5q-14 0 -22 -13.5t-8 -30.5q0 -20 9.5 -33t20.5 -13zM248 770q-30 0 -50 26t-20 63t20 63t50 26q15 0 27.5 -7t22.5 -19t15.5 -28.5t5.5 -34.5t-5.5 -34.5t-15.5 -28.5t-22.5 -19t-27.5 -7zM249 592l-77 -329h156z
M391 0l-43 179h-197l-43 -179h-102l190 704h106l190 -704h-101z" />
    <glyph glyph-name="AE" unicode="&#xc6;" horiz-adv-x="696" 
d="M334 616h-3l-135 -353h138v353zM334 0v179h-170l-68 -179h-99l268 700h392v-84h-226v-217h211v-84h-211v-231h226v-84h-323z" />
    <glyph glyph-name="Ccedilla" unicode="&#xc7;" horiz-adv-x="593" 
d="M255 -133q5 -4 15.5 -7t21.5 -3q15 0 31 7.5t16 26.5q0 18 -14 24.5t-25 8.5q-6 1 -12 1h-9l16 63q-50 5 -96.5 28.5t-82.5 67t-58 109.5t-22 157q0 94 24 163t64.5 114t92.5 67t109 22q54 0 95.5 -18t70.5 -48.5t45.5 -70.5t21.5 -83h-93q-6 41 -20.5 68t-34.5 42.5
t-43 21.5t-45 6q-48 0 -83.5 -22.5t-59 -61.5t-35 -91.5t-11.5 -112.5q0 -134 52 -206t139 -72q26 0 51.5 8t46.5 26t35 48t18 74h93q-3 -49 -20.5 -90.5t-45.5 -72t-66.5 -50t-83.5 -23.5l-7 -29q12 -2 23.5 -7.5t21 -14.5t15.5 -21.5t6 -28.5q0 -38 -29.5 -64t-73.5 -26
q-31 0 -68 15z" />
    <glyph glyph-name="Egrave" unicode="&#xc8;" horiz-adv-x="460" 
d="M244 770l-100 138h100l60 -138h-60zM71 0v700h349v-84h-252v-217h237v-84h-237v-231h252v-84h-349z" />
    <glyph glyph-name="Eacute" unicode="&#xc9;" horiz-adv-x="460" 
d="M198 770l60 138h100l-100 -138h-60zM71 0v700h349v-84h-252v-217h237v-84h-237v-231h252v-84h-349z" />
    <glyph glyph-name="Ecircumflex" unicode="&#xca;" horiz-adv-x="460" 
d="M301 770l-51 84l-50 -84h-62l72 138h83l72 -138h-64zM71 0v700h349v-84h-252v-217h237v-84h-237v-231h252v-84h-349z" />
    <glyph glyph-name="Edieresis" unicode="&#xcb;" horiz-adv-x="460" 
d="M266 770v93h86v-93h-86zM143 770v93h85v-93h-85zM71 0v700h349v-84h-252v-217h237v-84h-237v-231h252v-84h-349z" />
    <glyph glyph-name="Igrave" unicode="&#xcc;" horiz-adv-x="239" 
d="M105 770l-101 138h101l59 -138h-59zM71 0v700h97v-700h-97z" />
    <glyph glyph-name="Iacute" unicode="&#xcd;" horiz-adv-x="239" 
d="M76 770l59 138h101l-101 -138h-59zM71 0v700h97v-700h-97z" />
    <glyph glyph-name="Icircumflex" unicode="&#xce;" horiz-adv-x="238" 
d="M169 770l-51 84l-49 -84h-63l72 138h83l72 -138h-64zM71 0v700h96v-700h-96z" />
    <glyph glyph-name="Idieresis" unicode="&#xcf;" horiz-adv-x="238" 
d="M138 770v93h86v-93h-86zM15 770v93h86v-93h-86zM71 0v700h96v-700h-96z" />
    <glyph glyph-name="Eth" unicode="&#xd0;" horiz-adv-x="586" 
d="M192 86q43 0 82 6.5t74 29.5q22 15 41 35t32.5 48t21 65t7.5 84q0 46 -7 81.5t-20 62t-30 45t-38 32.5q-32 21 -71 30t-92 9h-24v-223h129v-80h-129v-225h24zM71 0v311h-45v80h45v309h146q81 0 136.5 -19t90.5 -49q58 -49 81 -123.5t23 -158.5q0 -35 -4 -71.5t-15.5 -72
t-30.5 -67.5t-49 -59q-35 -31 -94.5 -55.5t-153.5 -24.5h-130z" />
    <glyph glyph-name="Ntilde" unicode="&#xd1;" horiz-adv-x="634" 
d="M473 0l-305 509v-509h-97v700h94l301 -508v508h97v-700h-90zM463 880q-2 -40 -13.5 -62t-26 -32.5t-27 -13t-16.5 -2.5q-15 0 -27 7t-21.5 16t-18 16t-16.5 7q-15 0 -21.5 -13t-7.5 -32h-60q0 29 7.5 49.5t19.5 34t27 20t31 6.5q9 0 21 -6.5t24 -14t21.5 -14t14.5 -6.5
q12 0 21 7t9 33h59z" />
    <glyph glyph-name="Ograve" unicode="&#xd2;" horiz-adv-x="635" 
d="M308 770l-101 138h101l59 -138h-59zM317 68q39 0 73 17.5t58.5 53t38.5 88.5t14 124t-14 124t-38.5 88.5t-58.5 53t-73 17.5t-73 -17.5t-58.5 -53t-38.5 -88.5t-14 -124t14 -124t38.5 -88.5t58.5 -53t73 -17.5zM317 -14q-52 0 -102.5 23t-90.5 69t-64.5 114.5
t-24.5 158.5t24.5 158.5t64.5 114.5t90.5 69t102.5 23t103 -23t91 -69t64.5 -114.5t24.5 -158.5t-24.5 -158.5t-64.5 -114.5t-91 -69t-103 -23z" />
    <glyph glyph-name="Oacute" unicode="&#xd3;" horiz-adv-x="635" 
d="M267 770l60 138h100l-101 -138h-59zM317 68q39 0 73 17.5t58.5 53t38.5 88.5t14 124t-14 124t-38.5 88.5t-58.5 53t-73 17.5t-73 -17.5t-58.5 -53t-38.5 -88.5t-14 -124t14 -124t38.5 -88.5t58.5 -53t73 -17.5zM317 -14q-52 0 -102.5 23t-90.5 69t-64.5 114.5
t-24.5 158.5t24.5 158.5t64.5 114.5t90.5 69t102.5 23t103 -23t91 -69t64.5 -114.5t24.5 -158.5t-24.5 -158.5t-64.5 -114.5t-91 -69t-103 -23z" />
    <glyph glyph-name="Ocircumflex" unicode="&#xd4;" horiz-adv-x="635" 
d="M367 770l-51 84l-49 -84h-63l72 138h83l72 -138h-64zM317 68q39 0 73 17.5t58.5 53t38.5 88.5t14 124t-14 124t-38.5 88.5t-58.5 53t-73 17.5t-73 -17.5t-58.5 -53t-38.5 -88.5t-14 -124t14 -124t38.5 -88.5t58.5 -53t73 -17.5zM317 -14q-52 0 -102.5 23t-90.5 69
t-64.5 114.5t-24.5 158.5t24.5 158.5t64.5 114.5t90.5 69t102.5 23t103 -23t91 -69t64.5 -114.5t24.5 -158.5t-24.5 -158.5t-64.5 -114.5t-91 -69t-103 -23z" />
    <glyph glyph-name="Otilde" unicode="&#xd5;" horiz-adv-x="635" 
d="M445 880q-2 -40 -14 -62t-26 -32.5t-27 -13t-17 -2.5q-15 0 -26 7t-21 16t-18.5 16t-18.5 7q-13 0 -19.5 -13t-7.5 -32h-60q0 29 7.5 49.5t19.5 34t26 20t27 6.5q14 0 26.5 -6.5t23.5 -14t21.5 -14t19.5 -6.5q7 0 16 7t9 33h59zM317 68q39 0 73 17.5t58.5 53t38.5 88.5
t14 124t-14 124t-38.5 88.5t-58.5 53t-73 17.5t-73 -17.5t-58.5 -53t-38.5 -88.5t-14 -124t14 -124t38.5 -88.5t58.5 -53t73 -17.5zM317 -14q-52 0 -102.5 23t-90.5 69t-64.5 114.5t-24.5 158.5t24.5 158.5t64.5 114.5t90.5 69t102.5 23t103 -23t91 -69t64.5 -114.5
t24.5 -158.5t-24.5 -158.5t-64.5 -114.5t-91 -69t-103 -23z" />
    <glyph glyph-name="Odieresis" unicode="&#xd6;" horiz-adv-x="635" 
d="M336 770v93h86v-93h-86zM213 770v93h86v-93h-86zM317 68q39 0 73 17.5t58.5 53t38.5 88.5t14 124t-14 124t-38.5 88.5t-58.5 53t-73 17.5t-73 -17.5t-58.5 -53t-38.5 -88.5t-14 -124t14 -124t38.5 -88.5t58.5 -53t73 -17.5zM317 -14q-52 0 -102.5 23t-90.5 69
t-64.5 114.5t-24.5 158.5t24.5 158.5t64.5 114.5t90.5 69t102.5 23t103 -23t91 -69t64.5 -114.5t24.5 -158.5t-24.5 -158.5t-64.5 -114.5t-91 -69t-103 -23z" />
    <glyph glyph-name="multiply" unicode="&#xd7;" horiz-adv-x="371" 
d="M185 199l-84 -110l-53 56l85 110l-85 110l53 56l84 -110l85 110l52 -56l-84 -110l85 -110l-53 -56z" />
    <glyph glyph-name="Oslash" unicode="&#xd8;" horiz-adv-x="635" 
d="M200 121q46 -53 117 -53q39 0 73 17.5t58.5 53t38.5 88.5t14 124q0 47 -6.5 85.5t-17.5 70.5zM437 578q-48 56 -120 56q-39 0 -73 -17.5t-58.5 -53t-38.5 -88.5t-14 -124q0 -49 6.5 -88.5t18.5 -71.5zM49 39l50 70q-29 45 -46.5 105t-17.5 137q0 90 24.5 158.5
t64.5 114.5t90.5 69t102.5 23q45 0 89 -17t81 -51l42 58l60 -43l-53 -73q29 -45 46.5 -104.5t17.5 -134.5q0 -90 -24.5 -158.5t-64.5 -114.5t-91 -69t-103 -23q-45 0 -87.5 16.5t-79.5 48.5l-42 -58z" />
    <glyph glyph-name="Ugrave" unicode="&#xd9;" horiz-adv-x="564" 
d="M401 700h97v-442q0 -66 -8 -114.5t-29 -81.5q-26 -42 -74 -59t-105 -17t-105 17t-74 59q-21 33 -29 81.5t-8 114.5v442h97v-421q0 -54 3 -93t13 -62q23 -55 103 -55t103 55q10 23 13 62t3 93v421zM272 770l-100 138h100l60 -138h-60z" />
    <glyph glyph-name="Uacute" unicode="&#xda;" horiz-adv-x="564" 
d="M401 700h97v-442q0 -66 -8 -114.5t-29 -81.5q-26 -42 -74 -59t-105 -17t-105 17t-74 59q-21 33 -29 81.5t-8 114.5v442h97v-421q0 -54 3 -93t13 -62q23 -55 103 -55t103 55q10 23 13 62t3 93v421zM241 770l60 138h100l-101 -138h-59z" />
    <glyph glyph-name="Ucircumflex" unicode="&#xdb;" horiz-adv-x="564" 
d="M331 770l-51 84l-49 -84h-63l72 138h83l72 -138h-64zM401 700h97v-442q0 -66 -8 -114.5t-29 -81.5q-26 -42 -74 -59t-105 -17t-105 17t-74 59q-21 33 -29 81.5t-8 114.5v442h97v-421q0 -54 3 -93t13 -62q23 -55 103 -55t103 55q10 23 13 62t3 93v421z" />
    <glyph glyph-name="Udieresis" unicode="&#xdc;" horiz-adv-x="564" 
d="M300 770v93h86v-93h-86zM177 770v93h86v-93h-86zM401 700h97v-442q0 -66 -8 -114.5t-29 -81.5q-26 -42 -74 -59t-105 -17t-105 17t-74 59q-21 33 -29 81.5t-8 114.5v442h97v-421q0 -54 3 -93t13 -62q23 -55 103 -55t103 55q10 23 13 62t3 93v421z" />
    <glyph glyph-name="Yacute" unicode="&#xdd;" horiz-adv-x="445" 
d="M183 770l60 138h100l-101 -138h-59zM174 0v255l-173 445h99l123 -322l122 322h99l-173 -445v-255h-97z" />
    <glyph glyph-name="Thorn" unicode="&#xde;" horiz-adv-x="446" 
d="M222 226q35 0 56.5 10.5t33 28.5t15.5 42t4 51q0 26 -3.5 49t-14.5 40.5t-32.5 27.5t-58.5 10h-54v-259h54zM71 0v700h97v-129h62q52 0 89.5 -15.5t61 -43t34.5 -66.5t11 -85q0 -47 -11.5 -87t-36.5 -69t-63 -46t-92 -17h-55v-142h-97z" />
    <glyph glyph-name="germandbls" unicode="&#xdf;" horiz-adv-x="450" 
d="M235 66q39 0 63.5 30.5t24.5 96.5q0 124 -97 127v74q34 4 53 17t28.5 30t12 36t2.5 34q0 72 -23.5 102.5t-65.5 30.5q-41 0 -63.5 -33t-22.5 -117v-494h-96v494q0 62 15.5 104.5t41 68.5t57.5 37.5t64 11.5q34 0 68 -12.5t61 -37t43.5 -62t16.5 -86.5q0 -23 -4.5 -46.5
t-16.5 -45t-32 -39t-51 -27.5q32 -10 53 -28t33.5 -41t17.5 -48t5 -49q0 -38 -11.5 -74t-32.5 -64.5t-51.5 -46t-68.5 -17.5q-20 0 -28 4z" />
    <glyph glyph-name="agrave" unicode="&#xe0;" horiz-adv-x="392" 
d="M174 60q42 0 59.5 25.5t17.5 58.5q0 38 -19.5 58t-52.5 20q-20 0 -33.5 -7t-21.5 -19t-11.5 -28t-3.5 -33q0 -15 2.5 -28.5t9.5 -24t20 -16.5t33 -6zM251 0v46q-5 -8 -12.5 -17.5t-19.5 -17.5t-29.5 -13.5t-41.5 -5.5q-35 0 -58.5 12t-37.5 31.5t-20 44.5t-6 52
q0 33 8.5 61.5t25 49.5t42 33t58.5 12q26 0 49 -9t40 -29v12q0 32 -1.5 56t-7 40.5t-17.5 24.5t-33 8q-30 0 -42.5 -16.5t-20.5 -47.5h-78q8 66 42.5 101t105.5 35q44 0 72.5 -13t45 -36.5t23 -56.5t6.5 -72v-285h-93zM186 520l-101 138h101l59 -138h-59z" />
    <glyph glyph-name="aacute" unicode="&#xe1;" horiz-adv-x="392" 
d="M174 60q42 0 59.5 25.5t17.5 58.5q0 38 -19.5 58t-52.5 20q-20 0 -33.5 -7t-21.5 -19t-11.5 -28t-3.5 -33q0 -15 2.5 -28.5t9.5 -24t20 -16.5t33 -6zM251 0v46q-5 -8 -12.5 -17.5t-19.5 -17.5t-29.5 -13.5t-41.5 -5.5q-35 0 -58.5 12t-37.5 31.5t-20 44.5t-6 52
q0 33 8.5 61.5t25 49.5t42 33t58.5 12q26 0 49 -9t40 -29v12q0 32 -1.5 56t-7 40.5t-17.5 24.5t-33 8q-30 0 -42.5 -16.5t-20.5 -47.5h-78q8 66 42.5 101t105.5 35q44 0 72.5 -13t45 -36.5t23 -56.5t6.5 -72v-285h-93zM145 520l60 138h100l-101 -138h-59z" />
    <glyph glyph-name="acircumflex" unicode="&#xe2;" horiz-adv-x="392" 
d="M174 60q42 0 59.5 25.5t17.5 58.5q0 38 -19.5 58t-52.5 20q-20 0 -33.5 -7t-21.5 -19t-11.5 -28t-3.5 -33q0 -15 2.5 -28.5t9.5 -24t20 -16.5t33 -6zM251 0v46q-5 -8 -12.5 -17.5t-19.5 -17.5t-29.5 -13.5t-41.5 -5.5q-35 0 -58.5 12t-37.5 31.5t-20 44.5t-6 52
q0 33 8.5 61.5t25 49.5t42 33t58.5 12q26 0 49 -9t40 -29v12q0 32 -1.5 56t-7 40.5t-17.5 24.5t-33 8q-30 0 -42.5 -16.5t-20.5 -47.5h-78q8 66 42.5 101t105.5 35q44 0 72.5 -13t45 -36.5t23 -56.5t6.5 -72v-285h-93zM244 520l-51 84l-49 -84h-63l72 138h83l72 -138h-64z
" />
    <glyph glyph-name="atilde" unicode="&#xe3;" horiz-adv-x="392" 
d="M174 60q42 0 59.5 25.5t17.5 58.5q0 38 -19.5 58t-52.5 20q-20 0 -33.5 -7t-21.5 -19t-11.5 -28t-3.5 -33q0 -15 2.5 -28.5t9.5 -24t20 -16.5t33 -6zM251 0v46q-5 -8 -12.5 -17.5t-19.5 -17.5t-29.5 -13.5t-41.5 -5.5q-35 0 -58.5 12t-37.5 31.5t-20 44.5t-6 52
q0 33 8.5 61.5t25 49.5t42 33t58.5 12q26 0 49 -9t40 -29v12q0 32 -1.5 56t-7 40.5t-17.5 24.5t-33 8q-30 0 -42.5 -16.5t-20.5 -47.5h-78q8 66 42.5 101t105.5 35q44 0 72.5 -13t45 -36.5t23 -56.5t6.5 -72v-285h-93zM322 630q-2 -40 -14 -62t-26 -32.5t-27 -13t-17 -2.5
q-15 0 -26 7t-21 16t-18.5 16t-18.5 7q-13 0 -19.5 -13t-7.5 -32h-60q0 29 7.5 49.5t19.5 34t26 20t27 6.5q14 0 26.5 -6.5t23.5 -14t21.5 -14t19.5 -6.5q7 0 16 7t9 33h59z" />
    <glyph glyph-name="adieresis" unicode="&#xe4;" horiz-adv-x="392" 
d="M174 60q42 0 59.5 25.5t17.5 58.5q0 38 -19.5 58t-52.5 20q-20 0 -33.5 -7t-21.5 -19t-11.5 -28t-3.5 -33q0 -15 2.5 -28.5t9.5 -24t20 -16.5t33 -6zM251 0v46q-5 -8 -12.5 -17.5t-19.5 -17.5t-29.5 -13.5t-41.5 -5.5q-35 0 -58.5 12t-37.5 31.5t-20 44.5t-6 52
q0 33 8.5 61.5t25 49.5t42 33t58.5 12q26 0 49 -9t40 -29v12q0 32 -1.5 56t-7 40.5t-17.5 24.5t-33 8q-30 0 -42.5 -16.5t-20.5 -47.5h-78q8 66 42.5 101t105.5 35q44 0 72.5 -13t45 -36.5t23 -56.5t6.5 -72v-285h-93zM90 520v93h86v-93h-86zM213 520v93h86v-93h-86z" />
    <glyph glyph-name="aring" unicode="&#xe5;" horiz-adv-x="392" 
d="M174 60q42 0 59.5 25.5t17.5 58.5q0 38 -19.5 58t-52.5 20q-20 0 -33.5 -7t-21.5 -19t-11.5 -28t-3.5 -33q0 -15 2.5 -28.5t9.5 -24t20 -16.5t33 -6zM251 0v46q-5 -8 -12.5 -17.5t-19.5 -17.5t-29.5 -13.5t-41.5 -5.5q-35 0 -58.5 12t-37.5 31.5t-20 44.5t-6 52
q0 33 8.5 61.5t25 49.5t42 33t58.5 12q26 0 49 -9t40 -29v12q0 32 -1.5 56t-7 40.5t-17.5 24.5t-33 8q-30 0 -42.5 -16.5t-20.5 -47.5h-78q8 66 42.5 101t105.5 35q44 0 72.5 -13t45 -36.5t23 -56.5t6.5 -72v-285h-93zM194 520q-30 0 -50 26t-20 63t20 63t50 26
q15 0 27.5 -7t22.5 -19t15.5 -28.5t5.5 -34.5t-5.5 -34.5t-15.5 -28.5t-22.5 -19t-27.5 -7zM194 564q14 0 22.5 13t8.5 32q0 18 -8 31.5t-23 13.5q-14 0 -22 -13.5t-8 -30.5q0 -20 9.5 -33t20.5 -13z" />
    <glyph glyph-name="ae" unicode="&#xe6;" horiz-adv-x="631" 
d="M514 275q-4 65 -24 90.5t-53 25.5q-35 0 -58.5 -26.5t-31.5 -89.5h167zM172 60q43 0 60.5 26t17.5 59q0 38 -19.5 58.5t-52.5 20.5q-20 0 -33.5 -7.5t-21.5 -20t-11.5 -28.5t-3.5 -33q0 -15 2.5 -28.5t9.5 -24t19.5 -16.5t32.5 -6zM343 211q-2 -67 22 -107t72 -40
q32 0 54 20t27 58h84q-2 -27 -12 -54t-29 -48.5t-49 -34.5t-72 -13q-53 0 -87 20t-56 54q-28 -41 -59 -57.5t-69 -16.5q-27 0 -52.5 7.5t-46 25t-33 45t-12.5 66.5q0 31 8.5 59t25 49t42 33.5t59.5 12.5q26 0 48.5 -8.5t39.5 -30.5v37q0 21 -1.5 39.5t-7.5 33t-18 22.5
t-33 8q-26 0 -39.5 -14.5t-22.5 -49.5h-78q7 66 42.5 101t97.5 35q47 0 78.5 -19.5t41.5 -52.5q14 35 49 53.5t80 18.5q46 0 78.5 -19t53 -52.5t30 -79.5t9.5 -101h-265z" />
    <glyph glyph-name="ccedilla" unicode="&#xe7;" horiz-adv-x="404" 
d="M142 -133q5 -4 15.5 -7t22.5 -3q14 0 30 7.5t16 27.5q0 9 -4.5 15t-10.5 9.5t-13 5t-11 2.5q-6 1 -12 1h-9l18 71q-43 7 -73 29t-48.5 53t-27 69t-8.5 78q0 45 11 88t34.5 76.5t61 53.5t90.5 20q39 0 67 -11.5t46 -32t27.5 -48t12.5 -60.5h-82q-5 33 -19 56.5t-51 23.5
q-27 0 -46 -13t-31.5 -35.5t-18 -53t-5.5 -65.5q0 -33 5 -62t17 -50.5t31 -34.5t47 -13q38 0 55.5 24t19.5 71h82q-1 -29 -7 -57.5t-22 -52t-42.5 -38.5t-68.5 -18l-8 -34q12 -2 23.5 -7.5t21 -14.5t15.5 -21.5t6 -28.5q0 -38 -29.5 -64t-73.5 -26q-31 0 -68 15z" />
    <glyph glyph-name="egrave" unicode="&#xe8;" horiz-adv-x="413" 
d="M296 275q-4 65 -24 90.5t-53 25.5q-35 0 -58.5 -26.5t-30.5 -89.5h166zM125 211q-1 -65 21.5 -106t72.5 -41q33 0 54.5 20t26.5 58h84q-2 -26 -11.5 -53t-28.5 -48.5t-49 -35t-75 -13.5q-54 0 -91 20.5t-59.5 54t-32 76t-9.5 86.5q0 45 10 87t31.5 75t57 52.5t86.5 19.5
q49 0 83 -19t55 -52.5t30 -79.5t9 -101h-265zM193 520l-101 138h101l59 -138h-59z" />
    <glyph glyph-name="eacute" unicode="&#xe9;" horiz-adv-x="413" 
d="M296 275q-4 65 -24 90.5t-53 25.5q-35 0 -58.5 -26.5t-30.5 -89.5h166zM125 211q-1 -65 21.5 -106t72.5 -41q33 0 54.5 20t26.5 58h84q-2 -26 -11.5 -53t-28.5 -48.5t-49 -35t-75 -13.5q-54 0 -91 20.5t-59.5 54t-32 76t-9.5 86.5q0 45 10 87t31.5 75t57 52.5t86.5 19.5
q49 0 83 -19t55 -52.5t30 -79.5t9 -101h-265zM156 520l60 138h100l-101 -138h-59z" />
    <glyph glyph-name="ecircumflex" unicode="&#xea;" horiz-adv-x="413" 
d="M296 275q-4 65 -24 90.5t-53 25.5q-35 0 -58.5 -26.5t-30.5 -89.5h166zM125 211q-1 -65 21.5 -106t72.5 -41q33 0 54.5 20t26.5 58h84q-2 -26 -11.5 -53t-28.5 -48.5t-49 -35t-75 -13.5q-54 0 -91 20.5t-59.5 54t-32 76t-9.5 86.5q0 45 10 87t31.5 75t57 52.5t86.5 19.5
q49 0 83 -19t55 -52.5t30 -79.5t9 -101h-265zM258 520l-51 84l-50 -84h-62l72 138h83l72 -138h-64z" />
    <glyph glyph-name="edieresis" unicode="&#xeb;" horiz-adv-x="413" 
d="M296 275q-4 65 -24 90.5t-53 25.5q-35 0 -58.5 -26.5t-30.5 -89.5h166zM125 211q-1 -65 21.5 -106t72.5 -41q33 0 54.5 20t26.5 58h84q-2 -26 -11.5 -53t-28.5 -48.5t-49 -35t-75 -13.5q-54 0 -91 20.5t-59.5 54t-32 76t-9.5 86.5q0 45 10 87t31.5 75t57 52.5t86.5 19.5
q49 0 83 -19t55 -52.5t30 -79.5t9 -101h-265zM227 520v93h85v-93h-85zM103 520v93h86v-93h-86z" />
    <glyph glyph-name="igrave" unicode="&#xec;" horiz-adv-x="197" 
d="M84 520l-101 138h101l59 -138h-59zM51 0v450h95v-450h-95z" />
    <glyph glyph-name="iacute" unicode="&#xed;" horiz-adv-x="198" 
d="M58 520l60 138h100l-100 -138h-60zM51 0v450h96v-450h-96z" />
    <glyph glyph-name="icircumflex" unicode="&#xee;" horiz-adv-x="197" 
d="M148 520l-51 84l-49 -84h-63l72 138h83l72 -138h-64zM51 0v450h95v-450h-95z" />
    <glyph glyph-name="idieresis" unicode="&#xef;" horiz-adv-x="197" 
d="M121 520v93h86v-93h-86zM-10 520v93h86v-93h-86zM51 0v450h95v-450h-95z" />
    <glyph glyph-name="eth" unicode="&#xf0;" horiz-adv-x="457" 
d="M336 310q-21 26 -38.5 41.5t-32 24t-26.5 11.5t-22 3q-28 0 -46.5 -13.5t-29 -35.5t-15 -48.5t-4.5 -51.5q0 -41 9 -73.5t23.5 -55.5t33 -35.5t38.5 -12.5q26 0 46.5 20t34 54t21 78.5t8.5 93.5zM366 611q24 -48 39.5 -117t15.5 -159q0 -82 -14 -145.5t-40 -107.5
t-63 -67t-83 -23q-43 0 -78.5 19t-61.5 51.5t-40.5 76t-14.5 92.5t14 91t38.5 73.5t57.5 49.5t71 18q36 0 70 -16t57 -47q-3 45 -12 85t-24 71l-43 -44l-34 47l45 44q-9 14 -22.5 23.5t-31.5 9.5q-31 0 -76 -32l-35 74q32 20 61.5 29t53.5 9q64 0 115 -59l50 49l34 -47z" />
    <glyph glyph-name="ntilde" unicode="&#xf1;" 
d="M345 630q-2 -40 -13.5 -62.5t-26 -33t-27 -12.5t-16.5 -2q-15 0 -26.5 7t-21 16t-18 16t-18.5 7q-13 0 -19.5 -13t-7.5 -32h-60q0 29 7.5 49.5t19.5 34t26 20t27 6.5q14 0 26.5 -6.5t23.5 -14t21.5 -14t19.5 -6.5q7 0 15.5 7t8.5 33h59zM294 0v270q0 25 -1 46.5
t-6.5 36.5t-16 23.5t-28.5 8.5q-23 0 -41 -12.5t-30 -35t-18 -53t-6 -66.5v-218h-96v450h96v-68q26 46 57 63.5t66 17.5q59 0 89 -42.5t30 -134.5v-286h-95z" />
    <glyph glyph-name="ograve" unicode="&#xf2;" 
d="M209 520l-101 138h101l59 -138h-59zM219 64q26 0 44 12.5t29.5 34.5t16.5 51.5t5 63.5t-5 64t-16.5 52.5t-29.5 35.5t-44 13t-44.5 -13t-30 -35.5t-16.5 -52.5t-5 -64t5 -63.5t16.5 -51.5t30 -34.5t44.5 -12.5zM219 -8q-48 0 -84 20t-60 52.5t-36.5 75t-12.5 87.5
t12.5 87.5t36.5 75.5t60 53t84 20q47 0 83 -20t60 -53t36.5 -75.5t12.5 -87.5t-12.5 -87.5t-36.5 -75t-60 -52.5t-83 -20z" />
    <glyph glyph-name="oacute" unicode="&#xf3;" 
d="M168 520l60 138h100l-101 -138h-59zM219 64q26 0 44 12.5t29.5 34.5t16.5 51.5t5 63.5t-5 64t-16.5 52.5t-29.5 35.5t-44 13t-44.5 -13t-30 -35.5t-16.5 -52.5t-5 -64t5 -63.5t16.5 -51.5t30 -34.5t44.5 -12.5zM219 -8q-48 0 -84 20t-60 52.5t-36.5 75t-12.5 87.5
t12.5 87.5t36.5 75.5t60 53t84 20q47 0 83 -20t60 -53t36.5 -75.5t12.5 -87.5t-12.5 -87.5t-36.5 -75t-60 -52.5t-83 -20z" />
    <glyph glyph-name="ocircumflex" unicode="&#xf4;" 
d="M268 520l-51 84l-49 -84h-63l72 138h83l72 -138h-64zM219 64q26 0 44 12.5t29.5 34.5t16.5 51.5t5 63.5t-5 64t-16.5 52.5t-29.5 35.5t-44 13t-44.5 -13t-30 -35.5t-16.5 -52.5t-5 -64t5 -63.5t16.5 -51.5t30 -34.5t44.5 -12.5zM219 -8q-48 0 -84 20t-60 52.5t-36.5 75
t-12.5 87.5t12.5 87.5t36.5 75.5t60 53t84 20q47 0 83 -20t60 -53t36.5 -75.5t12.5 -87.5t-12.5 -87.5t-36.5 -75t-60 -52.5t-83 -20z" />
    <glyph glyph-name="otilde" unicode="&#xf5;" 
d="M346 630q-2 -40 -14 -62t-26 -32.5t-27 -13t-17 -2.5q-15 0 -26 7t-21 16t-18.5 16t-18.5 7q-13 0 -19.5 -13t-7.5 -32h-60q0 29 7.5 49.5t19.5 34t26 20t27 6.5q14 0 26.5 -6.5t23.5 -14t21.5 -14t19.5 -6.5q7 0 16 7t9 33h59zM219 64q26 0 44 12.5t29.5 34.5t16.5 51.5
t5 63.5t-5 64t-16.5 52.5t-29.5 35.5t-44 13t-44.5 -13t-30 -35.5t-16.5 -52.5t-5 -64t5 -63.5t16.5 -51.5t30 -34.5t44.5 -12.5zM219 -8q-48 0 -84 20t-60 52.5t-36.5 75t-12.5 87.5t12.5 87.5t36.5 75.5t60 53t84 20q47 0 83 -20t60 -53t36.5 -75.5t12.5 -87.5
t-12.5 -87.5t-36.5 -75t-60 -52.5t-83 -20z" />
    <glyph glyph-name="odieresis" unicode="&#xf6;" 
d="M237 520v93h86v-93h-86zM114 520v93h86v-93h-86zM219 64q26 0 44 12.5t29.5 34.5t16.5 51.5t5 63.5t-5 64t-16.5 52.5t-29.5 35.5t-44 13t-44.5 -13t-30 -35.5t-16.5 -52.5t-5 -64t5 -63.5t16.5 -51.5t30 -34.5t44.5 -12.5zM219 -8q-48 0 -84 20t-60 52.5t-36.5 75
t-12.5 87.5t12.5 87.5t36.5 75.5t60 53t84 20q47 0 83 -20t60 -53t36.5 -75.5t12.5 -87.5t-12.5 -87.5t-36.5 -75t-60 -52.5t-83 -20z" />
    <glyph glyph-name="divide" unicode="&#xf7;" horiz-adv-x="410" 
d="M48 215v80h314v-80h-314zM154 20v102h100v-102h-100zM154 388v102h100v-102h-100z" />
    <glyph glyph-name="oslash" unicode="&#xf8;" 
d="M271 372q-22 19 -52 19q-26 0 -44.5 -13t-30 -35.5t-16.5 -52.5t-5 -64q0 -47 9 -81zM161 87q23 -23 58 -23q26 0 44 12.5t29.5 34.5t16.5 51.5t5 63.5q0 25 -2.5 48t-8.5 43zM43 -2l36 60q-26 34 -39.5 77.5t-13.5 91.5q0 45 12.5 87.5t36.5 75.5t60 53t84 20
q27 0 49.5 -7t42.5 -19l37 59l46 -31l-40 -65q28 -34 42.5 -79.5t14.5 -93.5q0 -45 -12.5 -87.5t-36.5 -75t-60 -52.5t-83 -20q-57 0 -99 28l-34 -55z" />
    <glyph glyph-name="ugrave" unicode="&#xf9;" 
d="M291 0v73q-21 -43 -54 -62t-70 -19q-53 0 -86 40.5t-33 135.5v282h96v-265q0 -24 1 -44.5t6 -36.5t14.5 -25t27.5 -9q41 0 69.5 46t28.5 126v208h95v-450h-95zM211 520l-100 138h100l60 -138h-60z" />
    <glyph glyph-name="uacute" unicode="&#xfa;" 
d="M291 0v73q-21 -43 -54 -62t-70 -19q-53 0 -86 40.5t-33 135.5v282h96v-265q0 -24 1 -44.5t6 -36.5t14.5 -25t27.5 -9q41 0 69.5 46t28.5 126v208h95v-450h-95zM183 520l59 138h101l-101 -138h-59z" />
    <glyph glyph-name="ucircumflex" unicode="&#xfb;" 
d="M291 0v73q-21 -43 -54 -62t-70 -19q-53 0 -86 40.5t-33 135.5v282h96v-265q0 -24 1 -44.5t6 -36.5t14.5 -25t27.5 -9q41 0 69.5 46t28.5 126v208h95v-450h-95zM266 520l-51 84l-50 -84h-62l72 138h83l72 -138h-64z" />
    <glyph glyph-name="udieresis" unicode="&#xfc;" 
d="M291 0v73q-21 -43 -54 -62t-70 -19q-53 0 -86 40.5t-33 135.5v282h96v-265q0 -24 1 -44.5t6 -36.5t14.5 -25t27.5 -9q41 0 69.5 46t28.5 126v208h95v-450h-95zM233 520v93h85v-93h-85zM109 520v93h86v-93h-86z" />
    <glyph glyph-name="yacute" unicode="&#xfd;" horiz-adv-x="373" 
d="M141 520l60 138h100l-101 -138h-59zM51 -108q21 -7 39 -7q13 0 21.5 5t14.5 15t11 26t10 38l12 51h-33l-119 430h99l79 -342l86 342h95l-128 -483q-9 -34 -19.5 -63t-26 -50.5t-39 -34t-57.5 -12.5q-17 0 -27.5 2.5t-17.5 7.5v75z" />
    <glyph glyph-name="thorn" unicode="&#xfe;" horiz-adv-x="442" 
d="M226 64q13 0 30 8.5t31 28t24 51.5t10 78q0 30 -5 59t-16 51.5t-28.5 36.5t-41.5 14q-23 0 -39 -12.5t-26.5 -34.5t-15.5 -51t-5 -63q0 -47 8 -78.5t20 -51t26.5 -28t27.5 -8.5zM51 -193v909h96v-307q20 27 43 40.5t56 13.5q41 0 72.5 -19.5t53 -51.5t32.5 -74t11 -88
q0 -57 -16 -101.5t-41.5 -75t-57 -46t-62.5 -15.5q-30 0 -53 13t-38 35v-233h-96z" />
    <glyph glyph-name="ydieresis" unicode="&#xff;" horiz-adv-x="373" 
d="M205 520v93h86v-93h-86zM82 520v93h86v-93h-86zM51 -108q21 -7 39 -7q13 0 21.5 5t14.5 15t11 26t10 38l12 51h-33l-119 430h99l79 -342l86 342h95l-128 -483q-9 -34 -19.5 -63t-26 -50.5t-39 -34t-57.5 -12.5q-17 0 -27.5 2.5t-17.5 7.5v75z" />
    <glyph glyph-name="OE" unicode="&#x152;" horiz-adv-x="890" 
d="M501 351q0 71 -14 124t-38.5 88.5t-58.5 53t-73 17.5t-73 -17.5t-58.5 -53t-38.5 -88.5t-14 -124t14 -124t38.5 -88.5t58.5 -53t73 -17.5q38 0 71 16.5t57.5 50.5t39 84t16.5 118v14zM501 0v69q-38 -42 -86 -62.5t-98 -20.5q-52 0 -102.5 23t-90.5 69t-64.5 114.5
t-24.5 158.5t24.5 158.5t64.5 114.5t90.5 69t102.5 23q50 0 98 -21t86 -63v68h349v-84h-252v-217h237v-84h-237v-231h252v-84h-349z" />
    <glyph glyph-name="oe" unicode="&#x153;" horiz-adv-x="699" 
d="M582 275q-4 65 -24 90.5t-53 25.5q-35 0 -58.5 -26.5t-30.5 -89.5h166zM219 64q25 0 43.5 12t29.5 33.5t16.5 51.5t5.5 65q0 73 -22.5 119t-72.5 46q-26 0 -44.5 -13t-30 -35.5t-16.5 -52.5t-5 -64t5 -63.5t16.5 -51.5t30 -34.5t44.5 -12.5zM411 211q-1 -65 21.5 -106
t72.5 -41q33 0 54.5 20t26.5 58h84q-2 -26 -11.5 -53t-28.5 -48.5t-49 -35t-75 -13.5q-53 0 -88.5 18.5t-58.5 50.5q-24 -32 -59 -50.5t-81 -18.5q-48 0 -84 20t-60 52.5t-36.5 75t-12.5 87.5t12.5 87.5t36.5 75.5t60 53t84 20q45 0 80 -18.5t59 -50.5q22 32 56.5 50.5
t84.5 18.5q49 0 83 -19t55 -52.5t30 -79.5t9 -101h-265z" />
    <glyph glyph-name="Scaron" unicode="&#x160;" horiz-adv-x="479" 
d="M191 770l-72 138h64l49 -84l51 84h63l-72 -138h-83zM330 518q0 54 -28.5 86t-73.5 32q-24 0 -42 -9.5t-29 -25.5t-16.5 -35.5t-5.5 -39.5q0 -45 23.5 -68.5t58 -37.5t75.5 -26t75.5 -33t58 -58t23.5 -102q0 -44 -12.5 -83.5t-37 -68.5t-62.5 -46t-89 -17q-40 0 -78 12
t-68 39.5t-48 71t-18 106.5h96q0 -41 8.5 -69t24 -45t36.5 -24.5t45 -7.5q34 0 55 11.5t32.5 28.5t15.5 37t4 37q0 37 -13.5 60t-35.5 38t-50.5 24.5t-57.5 19t-57.5 21.5t-50.5 32.5t-35.5 51.5t-13.5 78q0 41 11.5 78.5t35.5 66.5t61 46t89 17q88 0 139 -50.5t51 -147.5
h-96z" />
    <glyph glyph-name="scaron" unicode="&#x161;" horiz-adv-x="355" 
d="M138 520l-72 138h64l49 -84l51 84h63l-72 -138h-83zM237 338q-2 34 -16.5 46.5t-41.5 12.5q-20 0 -32.5 -5t-19 -13t-9 -17t-2.5 -17q0 -25 16 -38.5t39.5 -22.5t51.5 -18t51.5 -24t39.5 -40t16 -68q0 -26 -7.5 -51.5t-24.5 -45.5t-46 -32.5t-71 -12.5q-32 0 -59.5 7.5
t-48 25t-32.5 45t-12 66.5l84 6q1 -45 18 -64.5t47 -19.5q18 0 30 6.5t18.5 16t9 20.5t2.5 21q0 28 -15.5 43t-38.5 25t-50.5 18.5t-50.5 22.5t-38.5 37.5t-15.5 63.5q0 64 41 97.5t111 33.5q69 0 104 -32.5t37 -92.5h-85z" />
    <glyph glyph-name="Ydieresis" unicode="&#x178;" horiz-adv-x="445" 
d="M241 770v93h86v-93h-86zM118 770v93h86v-93h-86zM174 0v255l-173 445h99l123 -322l122 322h99l-173 -445v-255h-97z" />
    <glyph glyph-name="Zcaron" unicode="&#x17d;" horiz-adv-x="457" 
d="M184 770l-72 138h64l49 -84l51 84h63l-72 -138h-83zM24 0v105l293 511h-276v84h387v-93l-304 -523h304v-84h-404z" />
    <glyph glyph-name="zcaron" unicode="&#x17e;" horiz-adv-x="356" 
d="M134 520l-72 138h64l49 -84l51 84h63l-72 -138h-83zM24 0v94l197 282h-186v74h293v-87l-206 -289h206v-74h-304z" />
    <glyph glyph-name="florin" unicode="&#x192;" horiz-adv-x="256" 
d="M7 -122q16 0 25.5 5t14.5 17.5t7 33.5t5 53l22 283h-60l6 70h61l14 191q3 38 8.5 68.5t18.5 53.5t34 38t54 21q11 2 22 3t25 1l-7 -68q-8 -1 -15.5 -2t-12.5 -3q-14 -7 -20 -28.5t-10 -69.5l-15 -205h60l-6 -70h-61l-22 -272q-3 -38 -8 -69t-15.5 -55t-27.5 -39.5
t-44 -22.5q-12 -3 -27.5 -4t-32.5 -1z" />
    <glyph glyph-name="circumflex" unicode="&#x2c6;" horiz-adv-x="307" 
d="M203 520l-51 84l-49 -84h-63l72 138h83l72 -138h-64z" />
    <glyph glyph-name="caron" unicode="&#x2c7;" horiz-adv-x="307" 
d="M103 658l51 -84l49 84h63l-72 -138h-83l-72 138h64z" />
    <glyph glyph-name="tilde" unicode="&#x2dc;" horiz-adv-x="335" 
d="M295 630q-2 -40 -14 -62t-26 -32.5t-27 -13t-17 -2.5q-15 0 -26 7t-21 16t-18.5 16t-18.5 7q-13 0 -19.5 -13t-7.5 -32h-60q0 29 7.5 49.5t19.5 34t26 20t27 6.5q14 0 26.5 -6.5t23.5 -14t21.5 -14t19.5 -6.5q7 0 16 7t9 33h59z" />
    <glyph glyph-name="mu" unicode="&#x3bc;" horiz-adv-x="640" 
d="M317 68q39 0 73 17.5t58.5 53t38.5 88.5t14 124t-14 124t-38.5 88.5t-58.5 53t-73 17.5t-73 -17.5t-58.5 -53t-38.5 -88.5t-14 -124t14 -124t38.5 -88.5t58.5 -53t73 -17.5zM489 55q-38 -35 -82 -52t-90 -17q-52 0 -102.5 23t-90.5 69t-64.5 114.5t-24.5 158.5
t24.5 158.5t64.5 114.5t90.5 69t102.5 23t103 -23t91 -69t64.5 -114.5t24.5 -158.5q0 -72 -16 -129.5t-43 -101.5l73 -67l-54 -63z" />
    <glyph glyph-name="endash" unicode="&#x2013;" horiz-adv-x="494" 
d="M47 215v80h400v-80h-400z" />
    <glyph glyph-name="emdash" unicode="&#x2014;" horiz-adv-x="894" 
d="M47 215v80h800v-80h-800z" />
    <glyph glyph-name="quoteleft" unicode="&#x2018;" horiz-adv-x="174" 
d="M29 509l47 191h53v-191h-100z" />
    <glyph glyph-name="quoteright" unicode="&#x2019;" horiz-adv-x="168" 
d="M45 509v191h100l-47 -191h-53z" />
    <glyph glyph-name="quotesinglbase" unicode="&#x201a;" horiz-adv-x="182" 
d="M45 -89v191h100l-47 -191h-53z" />
    <glyph glyph-name="quotedblleft" unicode="&#x201c;" horiz-adv-x="318" 
d="M29 509l47 191h53v-191h-100zM173 509l47 191h53v-191h-100z" />
    <glyph glyph-name="quotedblright" unicode="&#x201d;" horiz-adv-x="312" 
d="M189 509v191h100l-47 -191h-53zM45 509v191h100l-47 -191h-53z" />
    <glyph glyph-name="quotedblbase" unicode="&#x201e;" horiz-adv-x="326" 
d="M189 -89v191h100l-47 -191h-53zM45 -89v191h100l-47 -191h-53z" />
    <glyph glyph-name="dagger" unicode="&#x2020;" horiz-adv-x="343" 
d="M124 -50v500h-83v70h83v196h95v-196h83v-70h-83v-500h-95z" />
    <glyph glyph-name="daggerdbl" unicode="&#x2021;" horiz-adv-x="347" 
d="M126 -50v280h-83v70h83v150h-83v70h83v196h95v-196h83v-70h-83v-150h83v-70h-83v-280h-95z" />
    <glyph glyph-name="bullet" unicode="&#x2022;" horiz-adv-x="264" 
d="M132 227q-21 0 -39 9.5t-31.5 26.5t-21.5 39t-8 48t8 48.5t21.5 39.5t31.5 26.5t39 9.5t39 -9.5t31.5 -26.5t21.5 -39.5t8 -48.5t-8 -48t-21.5 -39t-31.5 -26.5t-39 -9.5z" />
    <glyph glyph-name="ellipsis" unicode="&#x2026;" horiz-adv-x="614" 
d="M469 0v102h100v-102h-100zM257 0v102h100v-102h-100zM45 0v102h100v-102h-100z" />
    <glyph glyph-name="perthousand" unicode="&#x2030;" horiz-adv-x="1158" 
d="M972 53q18 0 30 9.5t19.5 26t11 38t3.5 45.5t-3.5 45.5t-11 38t-19.5 26.5t-30 10t-30.5 -9.5t-20 -26t-11 -38t-3.5 -46.5t3.5 -46.5t11 -37.5t20 -25.5t30.5 -9.5zM972 -14q-37 0 -65.5 16t-47.5 42t-28.5 59.5t-9.5 68.5t9.5 68.5t28.5 60t47.5 42.5t65.5 16t65.5 -16
t47.5 -42.5t28.5 -60t9.5 -68.5t-9.5 -68.5t-28.5 -59.5t-47.5 -42t-65.5 -16zM610 53q18 0 30 9.5t19.5 25.5t11 38t3.5 46t-3.5 45.5t-11 38t-19.5 26.5t-30 10t-30 -9.5t-19.5 -26t-11 -38.5t-3.5 -46q0 -50 14.5 -84.5t49.5 -34.5zM611 -14q-37 0 -65.5 16t-47.5 42
t-28.5 59.5t-9.5 68.5t9.5 68.5t28.5 60t47.5 42.5t65.5 16t65 -16t47 -42.5t28.5 -60t9.5 -68.5t-9.5 -68.5t-28.5 -59.5t-47 -42t-65 -16zM187 410q18 0 30 9.5t19.5 25.5t11 38t3.5 46t-3.5 45.5t-11 38t-19.5 26.5t-30 10t-30 -9.5t-19.5 -26t-11 -38.5t-3.5 -46
q0 -50 14.5 -84.5t49.5 -34.5zM188 343q-37 0 -65.5 16t-47.5 42t-28.5 59.5t-9.5 68.5t9.5 68.5t28.5 60t47.5 42.5t65.5 16t65 -16t47 -42.5t28.5 -60t9.5 -68.5t-9.5 -68.5t-28.5 -59.5t-47 -42t-65 -16zM203 -27l313 763h75l-313 -763h-75z" />
    <glyph glyph-name="guilsinglleft" unicode="&#x2039;" horiz-adv-x="254" 
d="M156 35l-124 223l124 223h65l-101 -223l101 -223h-65z" />
    <glyph glyph-name="guilsinglright" unicode="&#x203a;" horiz-adv-x="254" 
d="M33 35l102 223l-102 223h65l124 -223l-124 -223h-65z" />
    <glyph glyph-name="Euro" unicode="&#x20ac;" horiz-adv-x="512" 
d="M467 17q-26 -15 -55.5 -23t-56.5 -8q-39 0 -77 16.5t-71 48.5t-58.5 79t-37.5 109h-74l9 75h55q-1 5 -1 14v41q0 10 1 17h-50l9 75h50q13 63 39 110.5t60 80t73 48.5t78 16q29 0 56.5 -8.5t50.5 -22.5l-34 -76q-20 14 -42 19.5t-38 5.5q-51 0 -89 -43t-55 -130h211
l-9 -75h-212q-1 -8 -1 -16v-38q0 -10 1 -18h207l-9 -75h-187q17 -85 51.5 -128t89.5 -43q16 0 38 4.5t43 17.5z" />
    <glyph glyph-name="trademark" unicode="&#x2122;" horiz-adv-x="710" 
d="M588 363v269l-90 -270h-56l-89 270v-269h-53v353h84l87 -276l85 276h85v-353h-53zM133 363v301h-74v52h201v-52h-74v-301h-53z" />
    <glyph glyph-name="glyph181" horiz-adv-x="286" 
d="M47 215v80h192v-80h-192z" />
    </font>
</defs>
</svg>
